<svg width="80" height="80" viewBox="0 0 80 80" fill="none" xmlns="http://www.w3.org/2000/svg">
<path d="M53.0146 48.4453C64.0691 48.4453 68.8238 49.9095 68.8238 52.1059C68.8238 56.3523 60.7408 53.5702 60.7408 57.6702C60.7408 61.6345 79.7594 58.988 79.9971 63.3808C80.1429 66.0748 75.0121 66.6956 68.2293 66.895C60.6813 67.1169 51.9446 66.0164 51.8257 69.5306C51.7019 73.1881 59.4332 70.9194 59.4332 75.1658C59.4332 81.6841 20.5669 81.5377 20.5669 75.1658C20.5669 70.9194 28.298 73.1881 28.1744 69.5306C28.0555 66.0164 19.319 67.1169 11.7708 66.895C4.98803 66.6956 -0.142751 66.0747 0.00303036 63.3808C0.240687 58.988 19.2594 61.6345 19.2594 57.6702C19.2594 53.5702 11.1765 56.3523 11.1765 52.1059C11.1765 49.9095 15.9312 48.4453 26.9857 48.4453H53.0146Z" fill="#BAEEFC"/>
<path d="M51.825 69.5312C51.8928 67.5256 54.768 67.0232 58.6267 66.9201C52.4056 66.8673 46.6098 66.6734 46.5131 69.5312C46.3894 73.1887 54.1206 70.9199 54.1206 75.1663C54.1206 78.1092 46.1986 79.6934 37.5078 79.9596C47.9795 80.2789 59.4325 78.7046 59.4325 75.1663C59.4325 70.9201 51.7014 73.1887 51.825 69.5312Z" fill="#A2E1F8"/>
<path d="M60.7393 57.6703C60.7393 53.5703 68.8223 56.3525 68.8223 52.1061C68.8223 49.9097 64.0676 48.4453 53.013 48.4453H47.7012C58.7557 48.4453 63.5104 49.9095 63.5104 52.1061C63.5104 56.3525 55.4274 53.5703 55.4274 57.6703C55.4274 61.6347 74.446 58.9881 74.6837 63.3809C74.8294 66.075 69.6987 66.6958 62.9159 66.8951C62.7721 66.8994 62.6277 66.903 62.4832 66.9062C64.3698 66.9233 66.3362 66.9508 68.2277 66.8951C75.0105 66.6958 80.1413 66.0748 79.9955 63.3809C79.7579 58.9881 60.7393 61.6347 60.7393 57.6703Z" fill="#A2E1F8"/>
<path d="M40 18.1924L28.5963 37.9444C23.528 46.723 29.8635 57.6961 40 57.6961C50.1366 57.6961 56.472 46.723 51.4038 37.9444L40 18.1924Z" fill="#82D5F2"/>
<path d="M40.0002 54.0744C39.3334 54.0744 38.793 53.5339 38.793 52.8672C38.793 52.2005 39.3334 51.66 40.0002 51.66C42.5784 51.66 44.8872 50.3271 46.1764 48.0941C46.5099 47.5166 47.2481 47.3188 47.8255 47.6522C48.403 47.9857 48.6008 48.7239 48.2674 49.3013C46.5417 52.2902 43.4513 54.0744 40.0002 54.0744Z" fill="#67C6E4"/>
<path d="M53.843 5.63379L48.7549 14.4466C46.4935 18.3635 49.3202 23.2594 53.843 23.2594C58.3658 23.2594 61.1926 18.3633 58.9311 14.4466L53.843 5.63379Z" fill="#BAEEFC"/>
<path d="M31.6302 0L28.0756 6.15687C26.4957 8.89328 28.4706 12.3137 31.6302 12.3137C34.7899 12.3137 36.7648 8.89328 35.1849 6.15687L31.6302 0Z" fill="#82D5F2"/>
</svg>
