<svg width="80" height="70" viewBox="0 0 80 70" fill="none" xmlns="http://www.w3.org/2000/svg">
<path d="M35.378 1.91992C31.8165 3.08387 28.6278 5.08193 26.0457 7.68572H2.41449C1.08105 7.68572 0 8.76676 0 10.1002C0 11.4336 1.08105 12.5147 2.41449 12.5147H15.2917C16.6252 12.5147 17.7062 13.5957 17.7062 14.9292C17.7062 16.2626 16.6252 17.3437 15.2917 17.3437H7.24346C5.91002 17.3437 4.82897 18.4247 4.82897 19.7581C4.82897 21.0916 5.91002 22.1726 7.24346 22.1726H10.4628C11.7962 22.1726 12.8773 23.2537 12.8773 24.5871C12.8773 25.9206 11.7962 27.0016 10.4628 27.0016H4.02414C2.6907 27.0016 1.60966 28.0827 1.60966 29.4161C1.60966 30.7495 2.6907 31.8306 4.02414 31.8306H8.25996C7.81215 33.0681 7.56539 34.4052 7.56539 35.8051C7.56539 42.2555 12.7944 47.4845 19.2446 47.4845H47.1771L35.378 1.91992Z" fill="#D4D4D5"/>
<path d="M79.9993 31.9124C79.9993 23.2782 73.0189 16.4502 64.6606 16.3394V16.3383C61.4532 7.26722 52.8033 0.767578 42.6338 0.767578C40.1028 0.767578 37.6637 1.17273 35.3772 1.91993C31.7534 6.94866 29.6172 13.1209 29.6172 19.7928C29.6172 32.0291 36.7988 42.5865 47.1763 47.4845H64.4268C73.0274 47.4845 79.9993 40.5126 79.9993 31.9124Z" fill="#EFEDEE"/>
<path d="M39.7472 42.736C38.8897 41.6805 37.5091 40.9596 36.3086 41.0462C33.6894 41.2062 33.1326 42.6476 32.185 44.6132C31.1231 46.7151 29.2791 48.4303 27.0127 49.2656C25.5392 49.8169 23.9191 49.9688 22.4022 49.6997C20.2748 49.3341 18.42 48.2517 16.807 46.1882C15.7565 44.7181 13.9495 44.326 14.1105 44.3766C13.3972 44.1525 13.0006 43.3927 13.2247 42.6795C13.3779 42.1915 13.784 41.8515 14.2525 41.7573C16.0628 41.3977 18.0912 41.7781 19.8822 43.0903C20.9105 43.8603 22.0409 44.1364 22.967 44.0513C25.751 43.7791 26.0722 41.0982 26.4925 40.2092C27.1387 38.6599 28.1395 37.4766 29.2255 36.4725C32.3254 33.7921 36.096 33.5632 38.0012 33.9777C42.9089 34.8278 46.3804 39.0415 46.7748 43.3662C47.0592 48.7461 43.7657 52.2803 40.2328 53.3374C38.9472 53.7282 37.5973 53.8019 36.3595 53.5453C35.6252 53.3931 35.1534 52.6745 35.3056 51.9402C35.4108 51.4331 35.786 51.0513 36.2499 50.9135C40.7003 49.5928 41.7942 45.2387 39.7472 42.736Z" fill="#B9F0FF"/>
<path d="M7.88519 60.6455C15.1871 60.1392 17.6635 57.7326 21.3493 57.854C25.8891 58.0422 28.002 60.9627 28.6937 61.717C33.0956 66.5053 39.9924 67.5833 45.5082 64.8259C48.3663 63.3969 49.2214 61.9903 50.2522 61.3025C52.5487 59.6956 56.6099 61.2521 57.2449 65.1894C57.3413 66.0919 57.2476 66.7446 57.1504 67.2555C57.0171 67.957 57.0976 68.7353 57.7408 69.0884C58.3956 69.448 59.0799 69.1115 59.6745 68.3486C60.009 67.9195 60.3124 67.4125 60.5675 66.9408C63.6162 60.5796 57.8834 53.9845 51.5235 53.9118C47.2806 53.8632 45.0298 56.5299 43.814 57.5667C40.9331 60.0298 36.0165 60.5584 32.3686 57.822C31.0849 56.9169 27.282 53.3705 20.6158 54.2405C16.4251 54.8847 14.2713 57.0693 9.27851 57.9533C8.74635 58.0475 8.21098 58.1191 7.67352 58.1708C7.03674 58.2319 6.55078 58.7665 6.55078 59.4062C6.55062 60.1284 7.16454 60.6954 7.88519 60.6455Z" fill="#B9F0FF"/>
<path d="M51.9416 46.8447C53.8064 44.0335 57.5598 43.2785 61.0563 45.7658C62.7398 46.9521 65.4154 47.6619 67.3167 46.8169C69.4808 45.7606 69.5906 44.0663 68.6729 43.1121C67.3613 41.7485 65.2886 42.777 65.4499 42.7174C64.706 42.9915 63.8808 42.6107 63.6066 41.8667C62.8387 39.7822 67.8623 36.2351 72.2209 39.1467C77.1233 42.3359 76.2199 50.1321 69.7438 52.7446C64.6417 54.7404 59.5574 51.9432 57.7031 49.7603C57.1014 49.0302 56.2957 48.3844 55.3589 48.4232C54.6017 48.4417 53.6115 49.0012 53.7724 48.9215C52.4627 49.5705 51.1385 48.0618 51.9416 46.8447Z" fill="#B9F0FF"/>
</svg>
