<svg width="80" height="76" viewBox="0 0 80 76" fill="none" xmlns="http://www.w3.org/2000/svg">
<path d="M80.0006 42.5852C80.0006 53.4507 72.9773 62.3423 64.3933 62.3423H55.2362C52.8577 62.3423 50.5975 61.6593 48.5754 60.4398C42.7368 56.9248 39.6289 49.6311 39.6289 42.5852C39.6289 37.4241 41.546 32.8031 44.5245 29.8081C46.2378 28.0839 47.5848 25.9013 48.501 23.4586C49.1614 21.7002 49.599 19.8093 49.7931 17.8532C49.8694 17.0908 49.9078 16.3169 49.9078 15.5381C49.9078 8.64111 54.3671 2.99902 59.8151 2.99902C62.5397 2.99902 65.0165 4.40894 66.8121 6.6825C68.6078 8.95545 69.7217 12.0896 69.7217 15.5381C69.7217 21.0801 71.6791 26.3596 75.1062 29.8081C76.5942 31.3059 77.818 33.2096 78.6701 35.3843C79.5215 37.5602 80.0006 40.0047 80.0006 42.5852Z" fill="#35E298"/>
<path d="M58.9728 36.3222C58.8513 40.0587 57.7753 43.719 55.9375 47.0558L48.576 60.4402C42.7368 56.9252 39.6289 49.6315 39.6289 42.5856C39.6289 37.4244 41.546 32.8035 44.5251 29.8085C46.2378 28.0842 47.5848 25.9016 48.5016 23.459C49.162 21.7006 49.599 19.8097 49.7931 17.8535C52.7106 19.4197 55.824 22.3335 57.6861 27.7424C58.6462 30.5342 59.0686 33.4334 58.9728 36.3222Z" fill="#1AB975"/>
<path d="M71.889 43.2651C71.889 49.7599 66.6241 55.0254 60.1294 55.0254C53.6346 55.0254 48.3691 49.7599 48.3691 43.2651C48.3691 36.7704 53.6346 31.5049 60.1294 31.5049C66.6241 31.5049 71.889 36.7704 71.889 43.2651Z" fill="#AE583E"/>
<path d="M58.6615 31.5957C48.2813 32.8872 44.6716 46.1471 52.9138 52.5521L55.9369 47.0553C57.7741 43.7185 58.8507 40.0582 58.9722 36.3217C59.0241 34.7427 58.9221 33.1613 58.6615 31.5957Z" fill="#7C3F2C"/>
<path d="M25.3772 11.6213C24.7625 8.82283 21.593 -1.31084 8.20125 0.994461C7.81123 1.0616 7.59333 1.48396 7.76362 1.84163C9.15095 4.75484 15.0347 15.552 24.8291 12.5484C25.2252 12.427 25.4657 12.026 25.3772 11.6213Z" fill="#1ED688"/>
<path d="M24.8277 12.5476C15.0346 15.5524 9.15079 4.75525 7.76346 1.84143C7.59378 1.48315 7.81045 1.06079 8.20047 0.994263C9.34671 0.797119 10.4203 0.690308 11.4225 0.664062C13.477 4.28894 18.0766 10.6165 24.9674 10.1288C25.1628 10.7282 25.294 11.2427 25.377 11.6217C25.4661 12.0264 25.2244 12.4262 24.8277 12.5476Z" fill="#1AB975"/>
<path d="M26.0363 20.5363C25.3655 20.5363 24.8223 19.993 24.8223 19.3223V1.98157C24.8223 1.31079 25.3655 0.767578 26.0363 0.767578C26.707 0.767578 27.2502 1.31079 27.2502 1.98157V19.3223C27.2502 19.993 26.707 20.5363 26.0363 20.5363Z" fill="#C0694E"/>
<path d="M49.0186 47.0559L40.4737 62.5924C38.2636 66.213 33.2355 67.5283 29.2682 65.4592C27.2351 64.399 24.8358 64.399 22.8003 65.4592C18.9246 67.4807 13.866 66.3052 11.5967 62.5924L3.04994 47.0559C-0.450425 40.6942 -0.801988 33.8686 1.30189 27.7431C3.92763 20.1107 9.05031 17.4477 12.5891 16.5279C14.2133 16.1056 15.5054 16.0506 16.0706 16.0506C16.2708 16.0506 16.3794 16.0567 16.3794 16.0567C17.9791 16.0567 19.5124 16.3259 20.9259 16.816C22.3377 17.3067 23.6328 18.0209 24.7577 18.9095C25.1251 19.2239 25.5805 19.3825 26.0352 19.3825C26.4905 19.3825 26.9452 19.2239 27.3126 18.9095C28.4381 18.0209 29.7315 17.3067 31.145 16.816C32.558 16.3259 34.09 16.0567 35.6909 16.0567C35.6909 16.0567 46.5107 15.367 50.7672 27.7431C52.8876 33.9083 52.5 40.7351 49.0186 47.0559Z" fill="#C42D2D"/>
<path d="M3.05214 47.0061L11.5971 62.5426C13.8071 66.1632 18.8352 67.4785 22.8025 65.4094C24.8356 64.3492 27.2349 64.3492 29.2704 65.4094C30.3611 65.9789 31.5281 66.2859 32.6682 66.3664C32.7335 66.2364 39.5188 51.3139 41.2492 47.5096C46.4231 36.1351 44.4169 23.4599 39.4816 16.4781C37.8574 16.0558 36.5653 16.0008 36.0001 16.0008C35.7999 16.0008 35.6913 16.0069 35.6913 16.0069C34.0916 16.0069 32.5584 16.2761 31.1448 16.7662C29.7331 17.2569 28.4379 17.971 27.313 18.8597C26.9456 19.1741 26.4903 19.3327 26.0355 19.3327C25.5802 19.3327 25.1255 19.1741 24.7581 18.8597C23.6326 17.971 22.3393 17.2569 20.9257 16.7662C19.5127 16.2761 17.9807 16.0069 16.3798 16.0069C16.3798 16.0069 5.56008 15.3172 1.30349 27.6933C-0.816875 33.8585 -0.429302 40.6853 3.05214 47.0061Z" fill="#ED5565"/>
<path d="M10.6223 50.922C9.2594 51.641 8.73755 53.3286 9.45655 54.6921C10.3007 56.2906 11.3669 57.6792 12.5468 58.881L3.23828 57.844C1.70691 57.6737 0.326905 58.7766 0.156007 60.3086C-0.0142812 61.8399 1.08923 63.2199 2.62061 63.3908L11.9285 64.4278C10.5131 65.3409 9.16724 66.4609 7.99231 67.8342C6.99073 69.0055 7.12805 70.7669 8.29932 71.7685C9.47058 72.7701 11.2321 72.6328 12.2336 71.4615C15.4221 67.7335 21.2028 66.1344 26.0941 65.9745C28.0357 65.9116 29.3253 63.9249 28.5825 62.1262C28.2468 61.3095 27.5236 60.6693 26.6117 60.4654C26.5232 60.4453 17.6792 58.3152 14.3925 52.0871C13.6729 50.7242 11.9852 50.2024 10.6223 50.922Z" fill="#1AB975"/>
<path d="M79.6903 69.1862C79.2918 72.761 76.2724 75.4679 72.6749 75.4746C52.0487 75.5149 66.4646 75.4874 33.2664 75.5509C26.3694 75.5637 20.9958 69.5701 21.76 62.717C21.9285 61.2113 22.3771 59.8106 23.0442 58.5575C25.0223 54.8466 28.9359 52.4375 33.2279 52.4375C34.0793 52.4375 34.9473 52.5315 35.8164 52.7311C65.0669 59.4138 67.3362 59.932 69.2362 60.366L71.6227 60.9116L74.2356 61.5092C77.0866 62.1586 79.1703 64.4651 79.6348 67.2257C79.7434 67.8587 79.7648 68.5178 79.6903 69.1862Z" fill="#FFA90B"/>
<path d="M79.6355 67.2257C78.3403 68.9194 76.3005 69.9992 74.0306 70.0022C53.4063 70.0431 67.8215 70.0156 34.6239 70.0785C28.1707 70.0901 23.0529 64.846 23.0449 58.5575C25.0231 54.8466 28.936 52.4375 33.228 52.4375C33.6895 52.4375 34.1545 52.465 34.6221 52.5236C35.0188 52.5706 35.4186 52.6401 35.8171 52.7311L37.0104 53.0027C67.9064 60.0632 40.363 53.7687 69.2369 60.366L71.6228 60.9116L74.2363 61.5092C77.0873 62.1586 79.171 64.4651 79.6355 67.2257Z" fill="#FFB52D"/>
<path d="M71.6235 60.9109L70.7025 70.2963C70.6329 70.9164 70.1086 71.376 69.4983 71.376C69.4525 71.376 69.4073 71.3729 69.3621 71.368C68.695 71.2936 68.2159 70.6948 68.2885 70.0277L69.2376 60.3652L71.6235 60.9109Z" fill="#F29500"/>
<path d="M38.4624 67.8488L37.6464 75.5423L35.2031 75.5471L36.0485 67.5802C36.1229 66.9131 36.7217 66.4322 37.3888 66.5066C38.0559 66.5811 38.5369 67.1817 38.4624 67.8488Z" fill="#F29500"/>
<path d="M60.6853 70.3245L60.1464 75.4991L57.7031 75.504L58.2714 70.056C58.3458 69.3889 58.9464 68.9097 59.6135 68.9842C60.2788 69.0587 60.7598 69.6574 60.6853 70.3245Z" fill="#F29500"/>
<path d="M51.0724 56.2166L50.7086 60.2943C50.6391 60.9144 50.1142 61.3746 49.5038 61.3746C49.4587 61.3746 49.4135 61.371 49.3677 61.3661C48.7006 61.2916 48.2203 60.6929 48.2947 60.0258L48.6847 55.6709L51.0724 56.2166Z" fill="#F29500"/>
<path d="M46.3025 70.59L45.7922 75.5265L43.3496 75.5314L43.8885 70.3214C43.963 69.6543 44.5654 69.1734 45.2307 69.2478C45.896 69.3223 46.377 69.9229 46.3025 70.59Z" fill="#F29500"/>
<path d="M37.0101 53.0026L36.1696 60.541C36.1 61.1611 35.5739 61.6207 34.9636 61.6207C34.9184 61.6207 34.8732 61.6177 34.8274 61.6128C34.1609 61.5383 33.6812 60.9371 33.7557 60.2719L34.6108 52.5961C34.6138 52.5723 34.6175 52.5479 34.6224 52.5234C35.0185 52.5704 35.4189 52.64 35.8168 52.731L37.0101 53.0026Z" fill="#F29500"/>
</svg>
