<svg width="80" height="44" viewBox="0 0 80 44" fill="none" xmlns="http://www.w3.org/2000/svg">
<path d="M69.8357 2.62966L79.9938 40.7225C76.2465 40.7225 76.3749 37.447 73.7467 38.3367L71.4595 28.3169L69.4538 19.5929L67.7395 12.0909L66.3184 5.84126L65.1758 0.850873C67.13 0.179413 67.0407 2.62966 69.8357 2.62966Z" fill="#DA4453"/>
<path d="M57.4555 21.6755L54.916 2.6291C57.7085 2.6291 62.3684 1.79148 65.1758 0.851562L66.3184 5.84195L67.7395 12.0915L69.4538 19.5936L71.4595 28.3176L73.7467 38.3374C69.987 39.6072 63.7399 40.7232 59.9951 40.7232L57.4555 21.6755Z" fill="#ED5565"/>
<path d="M54.9158 2.62881L59.9948 40.7216C56.2475 40.7216 56.3759 37.4462 53.7477 38.3359L51.9956 19.592L51.3099 12.1024L50.7258 5.85529L50.2559 0.85127C52.2113 0.17857 52.1221 2.62881 54.9158 2.62881Z" fill="#DA4453"/>
<path d="M51.9975 19.5923L53.7496 38.3362C50.0036 39.6059 43.7441 40.7219 39.998 40.7219V2.6291C42.7918 2.6291 47.4641 1.79148 50.2578 0.851562L50.7278 5.85559L51.3118 12.1027L51.9975 19.5923Z" fill="#ED5565"/>
<path d="M39.9971 30.5642V40.7223C36.2511 40.7223 36.3782 37.4468 33.75 38.3365L34.1691 28.3421L34.5374 19.5927L34.8548 12.103L35.1214 5.85592L35.3372 0.8519C37.3051 0.180439 37.2034 2.62944 39.9971 2.62944V30.5642Z" fill="#DA4453"/>
<path d="M35.1211 5.85559L34.8545 12.1027L34.5371 19.5923L34.1688 28.3418L33.7497 38.3362C29.9912 39.6059 23.7441 40.7219 19.998 40.7219L21.3565 30.5638L22.5376 21.6755L23.5531 14.057L24.4056 7.70815L25.0771 2.6291C27.8708 2.6291 32.5307 1.79148 35.3369 0.851562L35.1211 5.85559Z" fill="#ED5565"/>
<path d="M18.4119 12.103L19.5291 5.85592L20.4182 0.8519C22.3861 0.180439 22.2844 2.62944 25.0781 2.62944L24.4067 7.70848L23.5542 14.0573L22.5386 21.6759L21.3575 30.5642L19.9991 40.7223C16.253 40.7223 16.3801 37.4468 13.752 38.3365L15.5295 28.3421L17.0789 19.5927L18.4119 12.103Z" fill="#DA4453"/>
<path d="M19.5288 5.85559L18.4115 12.1027L17.0785 19.5923L15.5291 28.3418L13.7516 38.3362C10.0056 39.6059 3.74604 40.7219 0 40.7219L10.1581 2.6291C12.9518 2.6291 17.6241 1.79148 20.4179 0.851562L19.5288 5.85559Z" fill="#ED5565"/>
<path d="M5.28048 31.0721C4.95622 31.0721 4.6797 30.8266 4.64932 30.4968C4.61646 30.1502 4.87252 29.839 5.22158 29.8049C8.52061 29.4948 12.5804 28.6647 15.3251 27.7415C15.663 27.6293 16.0189 27.8084 16.1305 28.1401C16.2421 28.4712 16.0629 28.8321 15.7318 28.9437C12.9028 29.896 8.72769 30.7491 5.34124 31.069C5.31954 31.0721 5.30032 31.0721 5.28048 31.0721Z" fill="#DA4453"/>
<path d="M23.9074 31.0601C23.5838 31.0601 23.3067 30.8127 23.2763 30.4848C23.2434 30.1357 23.4995 29.8245 23.8479 29.7928C27.2127 29.4729 31.278 28.6502 33.9651 27.7425C34.2993 27.6334 34.6582 27.807 34.7698 28.1399C34.8821 28.4722 34.7041 28.8318 34.3724 28.9459C31.6023 29.8809 27.421 30.7315 23.9694 31.0589C23.9477 31.0576 23.9279 31.0601 23.9074 31.0601Z" fill="#DA4453"/>
<path d="M42.5363 31.0601C42.2127 31.0601 41.9356 30.8127 41.9052 30.4848C41.8723 30.1357 42.129 29.8245 42.4768 29.7928C45.8161 29.4754 49.9794 28.6322 52.6058 27.7425C52.9381 27.6334 53.2989 27.807 53.4105 28.1399C53.5234 28.4722 53.346 28.8318 53.0131 28.9459C50.2628 29.8778 46.0765 30.729 42.5971 31.0589C42.5766 31.0576 42.5568 31.0601 42.5363 31.0601Z" fill="#DA4453"/>
<path d="M61.1613 31.0596C60.8377 31.0596 60.5606 30.8122 60.5302 30.4842C60.4973 30.1352 60.754 29.8239 61.1018 29.7923C64.4591 29.4724 68.5083 28.6496 71.1812 27.742C72.7876 27.2429 73.5948 27.9968 74.3097 28.662C74.4839 28.8239 74.6643 28.9925 74.867 29.1562C75.1417 29.3744 75.1845 29.7731 74.9662 30.049C74.7468 30.3218 74.3493 30.3639 74.0734 30.1482C73.8453 29.964 73.6394 29.7731 73.4435 29.592C72.7429 28.9367 72.4255 28.6788 71.6486 28.9249C68.8332 29.8803 64.6674 30.731 61.2221 31.0583C61.2023 31.0571 61.1818 31.0596 61.1613 31.0596Z" fill="#DA4453"/>
<path d="M7.65354 22.1595C7.33114 22.1595 7.05462 21.9139 7.02238 21.5866C6.98952 21.2375 7.24496 20.9263 7.59278 20.8922C10.6748 20.5921 14.4041 19.8283 16.8748 18.9925C17.209 18.8834 17.5667 19.057 17.6796 19.3899C17.7918 19.7229 17.6138 20.0818 17.2821 20.1959C14.7302 21.0596 10.8868 21.8482 7.7174 22.1582C7.69694 22.157 7.67524 22.1595 7.65354 22.1595Z" fill="#DA4453"/>
<path d="M25.0866 22.1595C24.7642 22.1595 24.4877 21.9139 24.4561 21.5866C24.4226 21.2375 24.678 20.9263 25.0259 20.8922C28.1228 20.5921 31.8638 19.8283 34.3321 18.9925C34.6675 18.8834 35.024 19.057 35.1368 19.3899C35.249 19.7229 35.0711 20.0818 34.7394 20.1959C32.1875 21.0596 28.3336 21.8482 25.1492 22.1582C25.1275 22.157 25.1071 22.1595 25.0866 22.1595Z" fill="#DA4453"/>
<path d="M42.5346 22.1718C42.2135 22.1718 41.9363 21.9294 41.9035 21.6021C41.8694 21.2524 42.1229 20.9418 42.4714 20.907C45.6036 20.5871 49.3497 19.819 51.7925 18.9925C52.1248 18.8834 52.4831 19.057 52.5972 19.3899C52.7094 19.7229 52.5303 20.0818 52.1998 20.1959C49.677 21.0496 45.8194 21.8432 42.6003 22.1706C42.578 22.1718 42.5563 22.1718 42.5346 22.1718Z" fill="#DA4453"/>
<path d="M59.9814 22.1721C59.6602 22.1721 59.3837 21.9297 59.3508 21.6024C59.3161 21.2552 59.5691 20.942 59.9181 20.9073C63.0479 20.5874 66.8002 19.8167 69.2523 18.9928C70.7427 18.485 71.5277 19.206 72.2208 19.8409L72.5017 20.0939C72.7658 20.3245 72.7925 20.7257 72.5612 20.9885C72.3299 21.2539 71.9288 21.2793 71.6659 21.0487L71.3627 20.7777C70.7266 20.1949 70.4371 19.9296 69.6596 20.1925C67.1238 21.0487 63.2612 21.8423 60.0477 22.1697C60.0248 22.1721 60.0031 22.1721 59.9814 22.1721Z" fill="#DA4453"/>
<path d="M9.68617 14.5531C9.36501 14.5531 9.08973 14.3106 9.05625 13.9858C9.01967 13.6361 9.27263 13.3242 9.62045 13.2883C12.4737 12.9888 15.9246 12.269 18.2075 11.5008C18.5416 11.3917 18.9012 11.5702 19.0128 11.8995C19.1244 12.2318 18.9453 12.5914 18.6142 12.703C16.252 13.4991 12.6919 14.2431 9.75375 14.5506C9.73081 14.5531 9.70911 14.5531 9.68617 14.5531Z" fill="#DA4453"/>
<path d="M26.1166 14.5409C25.7942 14.5409 25.519 14.2954 25.4855 13.968C25.4514 13.6214 25.7056 13.3077 26.0534 13.2736C28.8974 12.9878 32.3526 12.2742 34.651 11.501C34.9851 11.3919 35.3441 11.568 35.4557 11.8997C35.5679 12.2308 35.3888 12.5916 35.0571 12.7032C32.6787 13.5074 29.1106 14.2433 26.183 14.5353C26.1613 14.5384 26.1383 14.5409 26.1166 14.5409Z" fill="#DA4453"/>
<path d="M42.5346 14.5407C42.2122 14.5407 41.9363 14.2951 41.9035 13.9678C41.8694 13.6212 42.1229 13.3075 42.4726 13.2734C45.3445 12.9851 48.8146 12.2739 51.1068 11.5008C51.4409 11.3917 51.7999 11.5702 51.9115 11.8995C52.0237 12.2318 51.8446 12.5914 51.5129 12.703C49.1401 13.504 45.5578 14.2406 42.5991 14.5351C42.5768 14.5382 42.5563 14.5407 42.5346 14.5407Z" fill="#DA4453"/>
<path d="M58.9529 14.5408C58.6311 14.5408 58.3559 14.2977 58.3218 13.9704C58.2858 13.6238 58.5388 13.3101 58.8866 13.2735C61.7801 12.9709 65.2379 12.2585 67.4866 11.5009C67.5096 11.4928 67.5313 11.4879 67.5542 11.4829C67.5567 11.4804 67.5592 11.4804 67.5616 11.4804C68.9225 11.0464 69.6808 11.7359 70.294 12.292L70.4732 12.452C70.7348 12.6826 70.7602 13.0844 70.5265 13.3473C70.2927 13.6095 69.8928 13.635 69.63 13.4018L69.4421 13.2326C68.8227 12.6677 68.5735 12.4786 67.9386 12.6919C67.9188 12.6994 67.8983 12.7043 67.8766 12.7093C67.8754 12.7093 67.8729 12.7093 67.8716 12.7093C65.5404 13.493 61.986 14.2246 59.0174 14.5352C58.9957 14.5383 58.9728 14.5408 58.9529 14.5408Z" fill="#DA4453"/>
<path d="M11.3756 8.19233C11.0557 8.19233 10.7804 7.94929 10.7457 7.62441C10.7091 7.27535 10.9602 6.96287 11.3099 6.92505C14.0051 6.63923 17.1528 5.98265 19.3259 5.25415C19.657 5.13697 20.0178 5.32111 20.1294 5.65281C20.241 5.98389 20.0618 6.34721 19.7308 6.45633C17.4771 7.21335 14.2239 7.89225 11.4445 8.18675C11.4203 8.18985 11.3986 8.19233 11.3756 8.19233Z" fill="#DA4453"/>
<path d="M26.9303 8.19238C26.6104 8.19238 26.3351 7.94934 26.3004 7.62446C26.2638 7.2754 26.5149 6.96292 26.8646 6.9251C29.5678 6.6368 32.8055 5.96472 34.9184 5.2542C35.2526 5.14446 35.6116 5.32116 35.7232 5.65286C35.8354 5.98394 35.6562 6.34478 35.3245 6.45638C33.0975 7.20782 29.8307 7.88734 26.9992 8.1868C26.975 8.1899 26.9533 8.19238 26.9303 8.19238Z" fill="#DA4453"/>
<path d="M42.5358 8.19217C42.2159 8.19217 41.94 7.94913 41.9059 7.62425C41.8693 7.27519 42.1204 6.96271 42.4682 6.92489C45.1975 6.63411 48.4339 5.96203 50.5227 5.25399C50.8593 5.14735 51.2158 5.32095 51.3287 5.65265C51.4409 5.98249 51.2629 6.34457 50.9312 6.45617C48.7637 7.19273 45.417 7.88713 42.6046 8.18659C42.5817 8.18969 42.5587 8.19217 42.5358 8.19217Z" fill="#DA4453"/>
<path d="M58.1152 8.17907C57.794 8.17907 57.5181 7.93665 57.484 7.61177C57.4474 7.26209 57.6998 6.95023 58.0476 6.91179C60.7018 6.62597 63.914 5.95947 66.0425 5.25267C66.0716 5.24213 66.1212 5.22973 66.1702 5.22291C67.4654 4.83354 68.1815 5.50129 68.7593 6.03697C69.016 6.27691 69.0303 6.67929 68.7909 6.93473C68.5522 7.19265 68.1511 7.20753 67.8938 6.96635C67.311 6.42323 67.099 6.26203 66.5106 6.44617C66.4597 6.46353 66.4089 6.47283 66.3568 6.47531C64.0548 7.22923 60.8438 7.88829 58.1821 8.17411C58.161 8.17659 58.1369 8.17907 58.1152 8.17907Z" fill="#DA4453"/>
<path d="M79.9949 40.7229H79.9999C79.9974 40.7229 79.9962 40.7229 79.9949 40.7229C78.5981 40.7229 77.9923 40.1606 77.2892 39.5108C76.4727 38.7563 75.3555 37.7203 73.3398 38.4023C69.6186 39.659 63.5085 40.7229 59.995 40.7229C58.5993 40.7229 57.9936 40.1606 57.2905 39.5108C56.474 38.7563 55.3592 37.7203 53.3411 38.4023C49.631 39.659 43.5209 40.7229 39.9975 40.7229C38.6006 40.7229 37.9949 40.1606 37.293 39.5108C36.4752 38.7538 35.3568 37.7203 33.3436 38.4023C29.6211 39.659 23.5098 40.7229 19.9987 40.7229C18.6019 40.7229 17.9961 40.1606 17.2943 39.5108C16.4765 38.7563 15.3617 37.7227 13.3436 38.4023C9.63357 39.659 3.52346 40.7229 0 40.7229V43.2624C3.81424 43.2624 10.1668 42.1619 14.1577 40.8072C14.7231 40.6163 14.8372 40.6975 15.5688 41.3745C16.3798 42.126 17.6068 43.2612 19.9975 43.2612C23.7993 43.2612 30.1506 42.1607 34.1552 40.8054C34.7188 40.615 34.8347 40.6963 35.5657 41.3733C36.3773 42.1247 37.6043 43.26 39.995 43.26C43.8092 43.26 50.1617 42.1595 54.1527 40.8041C54.715 40.6163 54.8297 40.6925 55.5632 41.3721C56.3748 42.1235 57.6011 43.2587 59.9912 43.2587C63.7943 43.2587 70.1456 42.1582 74.1489 40.8029C74.7088 40.615 74.826 40.6913 75.5594 41.3708C76.3723 42.1223 77.5986 43.2575 79.9887 43.2575H79.99V40.7229H79.9949Z" fill="#CCD1D9"/>
</svg>
