<svg width="50" height="80" viewBox="0 0 50 80" fill="none" xmlns="http://www.w3.org/2000/svg">
<path d="M20.6554 80.0007V71.9382L15.9629 70.8955V80.0007H20.6554Z" fill="#878B91"/>
<path d="M34.0362 80.0007V70.8955L29.3438 71.9382V80.0007H34.0362Z" fill="#878B91"/>
<path d="M0.320312 6.91984C0.320312 5.01266 1.58172 3.33531 3.41531 2.81016C7.36969 1.6775 14.9266 0 24.9998 0C35.3409 0 42.7522 1.6525 46.6161 2.78469C48.4344 3.3175 49.6794 4.99047 49.6794 6.885V59.6377C49.6794 61.5448 48.418 63.2222 46.5844 63.7473C42.63 64.88 35.0733 66.5575 24.9998 66.5575C14.6588 66.5575 7.2475 64.905 3.38359 63.7728C1.56531 63.24 0.320312 61.567 0.320312 59.6725V6.91984Z" fill="#E2FAFF"/>
<path d="M46.6169 2.78469C42.753 1.6525 35.3418 0 25.0007 0C24.1091 0 23.2384 0.01375 22.387 0.0384375C31.324 0.291406 37.7862 1.75359 41.3051 2.78469C43.1234 3.3175 44.3684 4.99047 44.3684 6.885V59.6377C44.3684 61.5448 43.1069 63.2222 41.2734 63.7473C37.669 64.7797 31.0705 66.2642 22.3027 66.5189C23.1788 66.5438 24.0776 66.5573 25.0009 66.5573C35.0741 66.5573 42.631 64.8798 46.5854 63.7472C48.419 63.222 49.6804 61.5445 49.6804 59.6375V6.885C49.6802 4.99047 48.4352 3.3175 46.6169 2.78469Z" fill="#CBF4FF"/>
<path d="M42.2528 63.2227V68.7498C42.2528 69.9516 41.4633 71.0127 40.3098 71.3508C37.6117 72.1417 32.2339 73.3794 24.9994 73.3794C17.5831 73.3794 12.3223 72.1636 9.68313 71.372C8.53391 71.0273 7.74609 69.9723 7.74609 68.7727V63.2227H42.2528Z" fill="#82D5F2"/>
<path d="M36.9424 63.2227V68.7498C36.9424 69.9516 36.1529 71.0128 34.9995 71.3508C32.6377 72.0431 28.2227 73.0777 22.3066 73.3248C23.1701 73.36 24.0684 73.3794 25.0009 73.3794C32.2354 73.3794 37.6132 72.1417 40.3113 71.3509C41.4648 71.0128 42.2543 69.9517 42.2543 68.75V63.2228H36.9424V63.2227Z" fill="#67C6E4"/>
<path d="M25.0003 28.0613C29.4339 28.0613 33.028 24.4676 33.028 20.0345C33.028 15.6015 29.4339 12.0078 25.0003 12.0078C20.5668 12.0078 16.9727 15.6015 16.9727 20.0345C16.9727 24.4676 20.5668 28.0613 25.0003 28.0613Z" fill="#82D5F2"/>
<path d="M24.9202 21.2821C24.6113 21.2821 24.3022 21.1641 24.0664 20.9284C23.595 20.457 23.595 19.6926 24.0666 19.221L26.4871 16.8009C26.9586 16.3293 27.7228 16.3295 28.1944 16.801C28.6658 17.2724 28.6658 18.0368 28.1942 18.5084L25.7738 20.9285C25.5381 21.1643 25.2291 21.2821 24.9202 21.2821Z" fill="#E7EFF9"/>
<path d="M0.320312 48.3896V59.6725C0.320312 61.567 1.56531 63.24 3.38359 63.7728C7.2475 64.905 14.6588 66.5575 24.9998 66.5575C35.0731 66.5575 42.63 64.88 46.5844 63.7473C48.418 63.2221 49.6794 61.5446 49.6794 59.6376V48.3896H0.320312Z" fill="#BAEEFC"/>
<path d="M44.3684 48.3898V59.6378C44.3684 61.545 43.1069 63.2223 41.2734 63.7475C37.669 64.7798 31.0705 66.2643 22.3027 66.519C23.1788 66.5439 24.0776 66.5575 25.0009 66.5575C35.0741 66.5575 42.631 64.88 46.5854 63.7473C48.419 63.2221 49.6804 61.5447 49.6804 59.6376V48.3896H44.3684V48.3898Z" fill="#A2E1F8"/>
<path d="M16.6096 57.8257C18.1632 57.8257 18.1659 55.4111 16.6096 55.4111C15.0559 55.4113 15.0534 57.8257 16.6096 57.8257Z" fill="#3CD6E7"/>
<path d="M25.0002 57.8257C26.5538 57.8257 26.5564 55.4111 25.0002 55.4111C23.4466 55.4113 23.4439 57.8257 25.0002 57.8257Z" fill="#878B91"/>
<path d="M33.3907 57.8257C34.9443 57.8257 34.947 55.4111 33.3907 55.4111C31.8371 55.4113 31.8346 57.8257 33.3907 57.8257Z" fill="#CC414D"/>
</svg>
