<svg width="80" height="80" viewBox="0 0 80 80" fill="none" xmlns="http://www.w3.org/2000/svg">
<path d="M17.5 64.375H5V78.125H17.5V64.375Z" fill="#A0556E"/>
<path d="M17.5 64.375H5V68.125H17.5V64.375Z" fill="#82465A"/>
<path d="M6.25 65.625H17.5V60.625H6.25C4.86922 60.625 3.75 61.7442 3.75 63.125C3.75 64.5058 4.86922 65.625 6.25 65.625Z" fill="#E8F7FF"/>
<path d="M5 64.375C5 65.0653 5.55969 65.625 6.25 65.625H17.5V63.125H6.25C5.55969 63.125 5 63.6847 5 64.375Z" fill="#D2F0FF"/>
<path d="M23.7775 21.875H18.7225C18.043 21.875 17.488 22.4178 17.4728 23.0972L16.25 78.125H26.25L25.0272 23.0972C25.012 22.4178 24.457 21.875 23.7775 21.875Z" fill="#AA6478"/>
<path d="M36.3256 35.625H33.6742C33.0141 35.625 32.4678 36.1383 32.4267 36.797L31.25 55.625H38.75L37.5733 36.797C37.532 36.1383 36.9858 35.625 36.3256 35.625Z" fill="#AA6478"/>
<path d="M18.7218 21.875C18.0423 21.875 17.4873 22.4178 17.4721 23.0972L17.416 25.625H25.0826L25.0265 23.0972C25.0113 22.4178 24.4563 21.875 23.7768 21.875H18.7218Z" fill="#BE788C"/>
<path d="M33.6744 35.625C33.0142 35.625 32.468 36.1383 32.4269 36.797L32.2656 39.375H37.7344L37.5733 36.797C37.532 36.1383 36.9858 35.625 36.3258 35.625H33.6744Z" fill="#BE788C"/>
<path d="M48.8256 35.625H46.1742C45.5141 35.625 44.9678 36.1383 44.9267 36.797L43.75 55.625H51.25L50.0733 36.797C50.032 36.1383 49.4858 35.625 48.8256 35.625Z" fill="#AA6478"/>
<path d="M46.1744 35.625C45.5142 35.625 44.968 36.1383 44.9269 36.797L44.7656 39.375H50.2344L50.0733 36.797C50.032 36.1383 49.4858 35.625 48.8258 35.625H46.1744Z" fill="#BE788C"/>
<path d="M61.3256 35.625H58.6742C58.0141 35.625 57.4678 36.1383 57.4267 36.797L56.25 55.625H63.75L62.5733 36.797C62.532 36.1383 61.9858 35.625 61.3256 35.625Z" fill="#AA6478"/>
<path d="M58.6744 35.625C58.0142 35.625 57.468 36.1383 57.4269 36.797L57.2656 39.375H62.7344L62.5733 36.797C62.532 36.1383 61.9858 35.625 61.3258 35.625H58.6744Z" fill="#BE788C"/>
<path d="M73.75 59.375H21.25V78.125H73.75V59.375Z" fill="#BE788C"/>
<path d="M73.75 59.375H21.25V63.125H73.75V59.375Z" fill="#AA6478"/>
<path d="M30 69.375C29.3091 69.375 28.75 68.8153 28.75 68.125V65.625C28.75 64.9347 29.3091 64.375 30 64.375C30.6909 64.375 31.25 64.9347 31.25 65.625V68.125C31.25 68.8153 30.6909 69.375 30 69.375Z" fill="#6482BE"/>
<path d="M35 69.375C34.3091 69.375 33.75 68.8153 33.75 68.125V65.625C33.75 64.9347 34.3091 64.375 35 64.375C35.6909 64.375 36.25 64.9347 36.25 65.625V68.125C36.25 68.8153 35.6909 69.375 35 69.375Z" fill="#6482BE"/>
<path d="M40 69.375C39.3091 69.375 38.75 68.8153 38.75 68.125V65.625C38.75 64.9347 39.3091 64.375 40 64.375C40.6909 64.375 41.25 64.9347 41.25 65.625V68.125C41.25 68.8153 40.6909 69.375 40 69.375Z" fill="#6482BE"/>
<path d="M45 69.375C44.3091 69.375 43.75 68.8153 43.75 68.125V65.625C43.75 64.9347 44.3091 64.375 45 64.375C45.6909 64.375 46.25 64.9347 46.25 65.625V68.125C46.25 68.8153 45.6909 69.375 45 69.375Z" fill="#6482BE"/>
<path d="M50 69.375C49.3091 69.375 48.75 68.8153 48.75 68.125V65.625C48.75 64.9347 49.3091 64.375 50 64.375C50.6909 64.375 51.25 64.9347 51.25 65.625V68.125C51.25 68.8153 50.6909 69.375 50 69.375Z" fill="#6482BE"/>
<path d="M55 69.375C54.3091 69.375 53.75 68.8153 53.75 68.125V65.625C53.75 64.9347 54.3091 64.375 55 64.375C55.6909 64.375 56.25 64.9347 56.25 65.625V68.125C56.25 68.8153 55.6909 69.375 55 69.375Z" fill="#6482BE"/>
<path d="M60 69.375C59.3091 69.375 58.75 68.8153 58.75 68.125V65.625C58.75 64.9347 59.3091 64.375 60 64.375C60.6909 64.375 61.25 64.9347 61.25 65.625V68.125C61.25 68.8153 60.6909 69.375 60 69.375Z" fill="#6482BE"/>
<path d="M65 69.375C64.3091 69.375 63.75 68.8153 63.75 68.125V65.625C63.75 64.9347 64.3091 64.375 65 64.375C65.6909 64.375 66.25 64.9347 66.25 65.625V68.125C66.25 68.8153 65.6909 69.375 65 69.375Z" fill="#6482BE"/>
<path d="M78.75 79.375H1.25C0.559062 79.375 0 78.8153 0 78.125C0 77.4347 0.559062 76.875 1.25 76.875H78.75C79.4409 76.875 80 77.4347 80 78.125C80 78.8153 79.4409 79.375 78.75 79.375Z" fill="#D2F0FF"/>
<path d="M22.5 60.625H72.5C73.8808 60.625 75 59.5058 75 58.125C75 56.7442 73.8808 55.625 72.5 55.625H22.5C21.1192 55.625 20 56.7442 20 58.125C20 59.5058 21.1192 60.625 22.5 60.625Z" fill="#E8F7FF"/>
<path d="M72.5 60.625H22.5C21.8097 60.625 21.25 60.0653 21.25 59.375C21.25 58.6847 21.8097 58.125 22.5 58.125H72.5C73.1903 58.125 73.75 58.6847 73.75 59.375C73.75 60.0653 73.1903 60.625 72.5 60.625Z" fill="#D2F0FF"/>
<path d="M30 64.375C29.3097 64.375 28.75 64.9347 28.75 65.625V66.875H31.25V65.625C31.25 64.9347 30.6903 64.375 30 64.375Z" fill="#506EAA"/>
<path d="M35 64.375C34.3097 64.375 33.75 64.9347 33.75 65.625V66.875H36.25V65.625C36.25 64.9347 35.6903 64.375 35 64.375Z" fill="#506EAA"/>
<path d="M40 64.375C39.3097 64.375 38.75 64.9347 38.75 65.625V66.875H41.25V65.625C41.25 64.9347 40.6903 64.375 40 64.375Z" fill="#506EAA"/>
<path d="M45 64.375C44.3097 64.375 43.75 64.9347 43.75 65.625V66.875H46.25V65.625C46.25 64.9347 45.6903 64.375 45 64.375Z" fill="#506EAA"/>
<path d="M50 64.375C49.3097 64.375 48.75 64.9347 48.75 65.625V66.875H51.25V65.625C51.25 64.9347 50.6903 64.375 50 64.375Z" fill="#506EAA"/>
<path d="M55 64.375C54.3097 64.375 53.75 64.9347 53.75 65.625V66.875H56.25V65.625C56.25 64.9347 55.6903 64.375 55 64.375Z" fill="#506EAA"/>
<path d="M60 64.375C59.3097 64.375 58.75 64.9347 58.75 65.625V66.875H61.25V65.625C61.25 64.9347 60.6903 64.375 60 64.375Z" fill="#506EAA"/>
<path d="M65 64.375C64.3097 64.375 63.75 64.9347 63.75 65.625V66.875H66.25V65.625C66.25 64.9347 65.6903 64.375 65 64.375Z" fill="#506EAA"/>
<path d="M65 0.625C61.2947 0.625 57.9383 2.09781 55.4656 4.48094C53.6898 2.86703 51.3388 1.875 48.75 1.875C45.7245 1.875 43.0189 3.22406 41.1852 5.34719C40.0961 4.73094 38.8406 4.375 37.5 4.375C34.0238 4.375 31.1083 6.74344 30.2581 9.95234C29.6245 9.59562 28.9039 9.375 28.125 9.375C25.7992 9.375 23.9156 11.1953 23.7766 13.4862C23.4019 13.2619 22.9686 13.125 22.5 13.125C21.1194 13.125 20 14.2442 20 15.625C20 17.0056 21.1194 18.125 22.5 18.125C23.5438 18.125 24.4363 17.4845 24.8105 16.5758C25.613 17.5161 26.792 18.125 28.125 18.125C29.5236 18.125 30.7545 17.4567 31.5553 16.4355C32.9264 18.2198 35.0756 19.375 37.5 19.375C38.8406 19.375 40.0961 19.0191 41.1852 18.4028C43.0189 20.5259 45.7245 21.875 48.75 21.875C50.242 21.875 51.6527 21.5392 52.9244 20.9534C55.2569 25.2259 59.7894 28.125 65 28.125C72.5939 28.125 78.75 21.9689 78.75 14.375C78.75 6.78109 72.5939 0.625 65 0.625Z" fill="#E8F7FF"/>
<path d="M69.9999 21.8755C64.9435 21.8755 60.5257 19.1455 58.1373 15.0797C58.0118 14.8659 57.7587 14.7817 57.5295 14.8758C56.3629 15.355 55.0892 15.6255 53.7499 15.6255C50.0113 15.6255 46.7593 13.5697 45.0442 10.5306C44.9251 10.3197 44.6834 10.2295 44.4537 10.3061C43.8388 10.5106 43.1834 10.6255 42.4999 10.6255C39.0842 10.6255 36.3181 7.8825 36.2606 4.48047C33.3462 4.96641 31.0049 7.13391 30.2581 9.95266C29.6245 9.59609 28.9038 9.37547 28.1249 9.37547C25.7992 9.37547 23.9156 11.1958 23.7765 13.4867C23.4018 13.2623 22.9685 13.1255 22.4999 13.1255C20.9509 13.1255 19.7309 14.5342 20.0515 16.1406C20.2401 17.0856 21.0146 17.8702 21.9576 18.0683C23.2262 18.335 24.3728 17.6391 24.8106 16.5762C25.6129 17.5166 26.792 18.1255 28.1249 18.1255C29.5235 18.1255 30.7545 17.4572 31.5553 16.4359C32.9263 18.2203 35.0756 19.3755 37.4999 19.3755C38.8406 19.3755 40.096 19.0195 41.1851 18.4033C43.0188 20.5264 45.7245 21.8755 48.7499 21.8755C50.242 21.8755 51.6526 21.5397 52.9243 20.9539C55.2568 25.2264 59.7893 28.1255 64.9999 28.1255C70.792 28.1255 75.7379 24.5395 77.7635 19.4706C75.5537 20.9858 72.8817 21.8755 69.9999 21.8755Z" fill="#D2F0FF"/>
</svg>
