<svg width="80" height="80" viewBox="0 0 80 80" fill="none" xmlns="http://www.w3.org/2000/svg">
<path d="M39.4064 4.28027H75.5089V77.1111H4.49219V4.28027H14.2719" fill="#ECEDF2"/>
<path d="M39.4064 4.28027H75.5089V11.7682H4.49219V4.28027H14.2719" fill="#C6CAD5"/>
<path d="M29.7267 7.11449H75.5081H78.6972C79.4164 7.11449 79.9995 6.53152 79.9995 5.81215V2.74668C79.9995 2.02746 79.4166 1.44434 78.6972 1.44434H33.0839H20.5909H1.30234C0.583125 1.44434 0 2.0273 0 2.74668V5.8123C0 6.53152 0.582969 7.11465 1.30234 7.11465H4.49141H21.7145" fill="#525C66"/>
<path d="M26.8404 31.1134C34.9664 31.1134 41.5538 24.526 41.5538 16.4C41.5538 8.27395 34.9664 1.68652 26.8404 1.68652C18.7144 1.68652 12.127 8.27395 12.127 16.4C12.127 24.526 18.7144 31.1134 26.8404 31.1134Z" fill="#C6CAD5"/>
<path d="M26.8404 29.4816C34.9664 29.4816 41.5538 22.8941 41.5538 14.7681C41.5538 6.64212 34.9664 0.0546875 26.8404 0.0546875C18.7144 0.0546875 12.127 6.64212 12.127 14.7681C12.127 22.8941 18.7144 29.4816 26.8404 29.4816Z" fill="white"/>
<path d="M35.432 11.8786H30.3796C30.0199 11.8786 29.7282 11.587 29.7282 11.2272V6.17484C29.7282 5.81516 29.4366 5.52344 29.0768 5.52344H24.6023C24.2426 5.52344 23.9509 5.815 23.9509 6.17484V11.2273C23.9509 11.587 23.6593 11.8787 23.2995 11.8787H18.2471C17.8874 11.8787 17.5957 12.1703 17.5957 12.5302V17.0047C17.5957 17.3644 17.8873 17.6561 18.2471 17.6561H23.2995C23.6591 17.6561 23.9509 17.9477 23.9509 18.3075V23.3598C23.9509 23.7195 24.2424 24.0113 24.6023 24.0113H29.0768C29.4365 24.0113 29.7282 23.7197 29.7282 23.3598V18.3075C29.7282 17.9478 30.0198 17.6561 30.3796 17.6561H35.432C35.7916 17.6561 36.0834 17.3645 36.0834 17.0047V12.5302C36.0834 12.1703 35.7918 11.8786 35.432 11.8786Z" fill="#ED5565"/>
<path d="M57.1034 34.4209H49.1465V48.9506H57.1034V34.4209Z" fill="#A0D9F2"/>
<path d="M30.8573 34.4209H22.9004V48.9506H30.8573V34.4209Z" fill="#A0D9F2"/>
<path d="M70.2244 34.4209H62.2676V48.9506H70.2244V34.4209Z" fill="#A0D9F2"/>
<path d="M43.9784 34.4209H36.0215V48.9506H43.9784V34.4209Z" fill="#A0D9F2"/>
<path d="M17.7362 34.4209H9.7793V48.9506H17.7362V34.4209Z" fill="#A0D9F2"/>
<path d="M30.8573 53.8877H22.9004V68.4174H30.8573V53.8877Z" fill="#A0D9F2"/>
<path d="M43.9784 53.8877H36.0215V68.4174H43.9784V53.8877Z" fill="#A0D9F2"/>
<path d="M17.7362 53.8877H9.7793V68.4174H17.7362V53.8877Z" fill="#A0D9F2"/>
<path d="M57.1034 14.9512H49.1465V29.4809H57.1034V14.9512Z" fill="#A0D9F2"/>
<path d="M70.2244 14.9512H62.2676V29.4809H70.2244V14.9512Z" fill="#A0D9F2"/>
<path d="M57.1005 49.9292H49.1436C48.6027 49.9292 48.1641 49.4904 48.1641 48.9497V34.42C48.1641 33.879 48.6028 33.4404 49.1436 33.4404H57.1005C57.6414 33.4404 58.08 33.8792 58.08 34.42V48.9497C58.08 49.4906 57.6412 49.9292 57.1005 49.9292ZM50.1231 47.97H56.1208V35.3995H50.1231V47.97Z" fill="white"/>
<path d="M30.8563 49.9292H22.8995C22.3585 49.9292 21.9199 49.4904 21.9199 48.9497V34.42C21.9199 33.879 22.3587 33.4404 22.8995 33.4404H30.8563C31.3973 33.4404 31.8359 33.8792 31.8359 34.42V48.9497C31.8359 49.4906 31.3971 49.9292 30.8563 49.9292ZM23.879 47.97H29.8766V35.3995H23.879V47.97Z" fill="white"/>
<path d="M70.2216 49.9292H62.2647C61.7237 49.9292 61.2852 49.4904 61.2852 48.9497V34.42C61.2852 33.879 61.7239 33.4404 62.2647 33.4404H70.2216C70.7625 33.4404 71.2011 33.8792 71.2011 34.42V48.9497C71.2011 49.4906 70.7625 49.9292 70.2216 49.9292ZM63.2442 47.97H69.2419V35.3995H63.2442V47.97Z" fill="white"/>
<path d="M43.9794 49.9292H36.0225C35.4816 49.9292 35.043 49.4904 35.043 48.9497V34.42C35.043 33.879 35.4817 33.4404 36.0225 33.4404H43.9794C44.5203 33.4404 44.9589 33.8792 44.9589 34.42V48.9497C44.9589 49.4906 44.5202 49.9292 43.9794 49.9292ZM37.002 47.97H42.9997V35.3995H37.002V47.97Z" fill="white"/>
<path d="M17.7351 49.9292H9.77836C9.23742 49.9292 8.79883 49.4904 8.79883 48.9497V34.42C8.79883 33.879 9.23758 33.4404 9.77836 33.4404H17.7352C18.2762 33.4404 18.7148 33.8792 18.7148 34.42V48.9497C18.7148 49.4906 18.2762 49.9292 17.7351 49.9292ZM10.7579 47.97H16.7555V35.3995H10.7579V47.97Z" fill="white"/>
<path d="M70.2231 53.8877H49.1445V74.2752L70.2231 75.908V53.8877Z" fill="#A0D9F2"/>
<path d="M71.2019 75.0916H69.2427V54.8673H50.1233V75.0916H48.1641V53.8877C48.1641 53.3468 48.6028 52.9082 49.1436 52.9082H70.2222C70.7631 52.9082 71.2017 53.347 71.2017 53.8877L71.2019 75.0916Z" fill="white"/>
<path d="M30.8563 69.3969H22.8995C22.3585 69.3969 21.9199 68.9582 21.9199 68.4174V53.8877C21.9199 53.3468 22.3587 52.9082 22.8995 52.9082H30.8563C31.3973 52.9082 31.8359 53.347 31.8359 53.8877V68.4174C31.8359 68.9582 31.3971 69.3969 30.8563 69.3969ZM23.879 67.4377H29.8766V54.8673H23.879V67.4377Z" fill="white"/>
<path d="M43.9794 69.3969H36.0225C35.4816 69.3969 35.043 68.9582 35.043 68.4174V53.8877C35.043 53.3468 35.4817 52.9082 36.0225 52.9082H43.9794C44.5203 52.9082 44.9589 53.347 44.9589 53.8877V68.4174C44.9589 68.9582 44.5202 69.3969 43.9794 69.3969ZM37.002 67.4377H42.9997V54.8673H37.002V67.4377Z" fill="white"/>
<path d="M17.7351 69.3969H9.77836C9.23742 69.3969 8.79883 68.9582 8.79883 68.4174V53.8877C8.79883 53.3468 9.23758 52.9082 9.77836 52.9082H17.7352C18.2762 52.9082 18.7148 53.347 18.7148 53.8877V68.4174C18.7148 68.9582 18.2762 69.3969 17.7351 69.3969ZM10.7579 67.4377H16.7555V54.8673H10.7579V67.4377Z" fill="white"/>
<path d="M57.1005 30.4608H49.1436C48.6027 30.4608 48.1641 30.022 48.1641 29.4812V14.9512C48.1641 14.4103 48.6028 13.9717 49.1436 13.9717H57.1005C57.6414 13.9717 58.08 14.4104 58.08 14.9512V29.4809C58.08 30.022 57.6412 30.4608 57.1005 30.4608ZM50.1231 28.5015H56.1208V15.9309H50.1231V28.5015Z" fill="white"/>
<path d="M70.2216 30.4608H62.2647C61.7237 30.4608 61.2852 30.022 61.2852 29.4812V14.9512C61.2852 14.4103 61.7239 13.9717 62.2647 13.9717H70.2216C70.7625 13.9717 71.2011 14.4104 71.2011 14.9512V29.4809C71.2011 30.022 70.7625 30.4608 70.2216 30.4608ZM63.2442 28.5015H69.2419V15.9309H63.2442V28.5015Z" fill="white"/>
<path d="M70.2236 57.8877H49.1445V59.8469H70.2236V57.8877Z" fill="white"/>
<path d="M60.6623 58.8672H58.7031V75.907H60.6623V58.8672Z" fill="white"/>
<path d="M30.8559 57.5615H22.8984V59.5207H30.8559V57.5615Z" fill="white"/>
<path d="M43.979 59.5198H36.0215V57.5605H42.9995V53.8887H44.9587V58.5401C44.9585 59.0812 44.5199 59.5198 43.979 59.5198Z" fill="white"/>
<path d="M17.7352 57.5615H9.7793V59.5207H17.7352V57.5615Z" fill="white"/>
<path d="M70.2216 40.0516H62.2656V38.0924H69.2419V34.4189H71.2011V39.0719C71.2012 39.6129 70.7627 40.0516 70.2216 40.0516Z" fill="white"/>
<path d="M43.977 38.0938H36.0195V40.053H43.977V38.0938Z" fill="white"/>
<path d="M17.7352 38.0938H9.7793V40.053H17.7352V38.0938Z" fill="white"/>
<path d="M30.8559 38.0938H22.8984V40.053H30.8559V38.0938Z" fill="white"/>
<path d="M57.1001 38.0938H49.1426V40.053H57.1001V38.0938Z" fill="white"/>
<path d="M70.2216 20.5838H62.2656V18.6246H69.2419V14.9512H71.2011V19.6041C71.2012 20.1452 70.7627 20.5838 70.2216 20.5838Z" fill="white"/>
<path d="M57.1001 18.625H49.1426V20.5842H57.1001V18.625Z" fill="white"/>
<path d="M77.6045 74.2754H2.395C1.07234 74.2754 0 75.3477 0 76.6702V79.9455H79.9995V76.6702C79.9995 75.3477 78.9272 74.2754 77.6045 74.2754Z" fill="#423E3E"/>
</svg>
