<svg width="67" height="71" viewBox="0 0 67 71" fill="none" xmlns="http://www.w3.org/2000/svg">
<path d="M60.6965 56.4581H56.1568V53.4317H60.6965C62.3655 53.4317 63.7229 52.0743 63.7229 50.4052V9.54849C63.7229 7.04563 61.6861 5.00885 59.1833 5.00885C56.6804 5.00885 54.6436 7.04563 54.6436 9.54849V14.0881H51.6172V9.54849C51.6172 5.37656 55.0113 1.98242 59.1833 1.98242C63.3552 1.98242 66.7493 5.37656 66.7493 9.54849V50.4052C66.7493 53.7434 64.0346 56.4581 60.6965 56.4581Z" fill="#757575"/>
<path d="M31.9453 6.5216V0.46875H41.0246V6.5216" fill="#757575"/>
<path d="M36.485 0.46875H31.9453V6.5216H36.485V0.46875Z" fill="#9C9C9C"/>
<path d="M28.9199 12.5743V6.52148H44.0521V12.5743" fill="#9C9C9C"/>
<path d="M39.5124 6.52148H28.9199V12.5743H39.5124V6.52148Z" fill="#BDBDBD"/>
<path d="M10.7599 21.6533H4.70703V39.8119H10.7599V21.6533Z" fill="#0090B5"/>
<path d="M7.73346 21.6533H4.70703V39.8119H7.73346V21.6533Z" fill="#00C0F1"/>
<path d="M53.1296 70.0763H19.8389C18.1668 70.0763 16.8125 68.722 16.8125 67.0499V15.6006C16.8125 13.9285 18.1668 12.5742 19.8389 12.5742H53.1296C54.8017 12.5742 56.156 13.9285 56.156 15.6006V67.0499C56.156 68.722 54.8017 70.0763 53.1296 70.0763Z" fill="#0090B5"/>
<path d="M51.6164 67.0499V15.6006C51.6164 13.9285 50.2621 12.5742 48.59 12.5742H19.8389C18.1668 12.5742 16.8125 13.9285 16.8125 15.6006V67.0499C16.8125 68.722 18.1668 70.0763 19.8389 70.0763H48.59C50.2621 70.0763 51.6164 68.722 51.6164 67.0499Z" fill="#00C0F1"/>
<path d="M56.156 21.6533H16.8125V60.9969H56.156V21.6533Z" fill="#9C9C9C"/>
<path d="M51.6164 21.6533H16.8125V60.9969H51.6164V21.6533Z" fill="#BDBDBD"/>
<path d="M36.4842 54.9439C44.0057 54.9439 50.1031 48.8465 50.1031 41.325C50.1031 33.8035 44.0057 27.7061 36.4842 27.7061C28.9626 27.7061 22.8652 33.8035 22.8652 41.325C22.8652 48.8465 28.9626 54.9439 36.4842 54.9439Z" fill="#BF9F00"/>
<path d="M34.2143 54.7404C40.4823 54.7404 45.5634 48.7345 45.5634 41.3258C45.5634 33.9171 40.4823 27.9111 34.2143 27.9111C27.9464 27.9111 22.8652 33.9171 22.8652 41.3258C22.8652 48.7345 27.9464 54.7404 34.2143 54.7404Z" fill="#FFD400"/>
<path d="M9.24789 21.6536H6.22146V11.5922L0.5 4.44078L2.86364 2.55078L8.91649 10.1168C9.13137 10.3847 9.24789 10.7176 9.24789 11.0611V21.6536Z" fill="#757575"/>
<path d="M16.8132 56.4578H12.2736C8.93541 56.4578 6.2207 53.7431 6.2207 50.405V39.8125H9.24713V50.405C9.24713 52.0741 10.6045 53.4314 12.2736 53.4314H16.8132V56.4578Z" fill="#757575"/>
<path d="M44.9816 30.6904L25.8516 49.8205C26.4841 50.6104 27.2014 51.3276 27.9912 51.9602L47.1198 32.8301C46.4888 32.0402 45.7715 31.323 44.9816 30.6904Z" fill="#757575"/>
</svg>
