<svg width="64" height="78" viewBox="0 0 64 78" fill="none" xmlns="http://www.w3.org/2000/svg">
<path d="M53.3015 78H4.69852C2.1035 78 0 75.8264 0 73.1453V4.85471C0 2.17343 2.10365 0 4.69852 0H53.3015C55.8965 0 58 2.17358 58 4.85471V73.1451C58 75.8264 55.8963 78 53.3015 78Z" fill="#C17D4F"/>
<path d="M53.7801 0.414062H48.9512C51.6181 0.414062 53.7801 2.57609 53.7801 5.24297V73.1705C53.7801 75.8373 51.6181 77.9994 48.9512 77.9994H53.7801C56.447 77.9994 58.609 75.8373 58.609 73.1705V5.24297C58.609 2.57609 56.447 0.414062 53.7801 0.414062Z" fill="#B16E3D"/>
<path d="M5.93359 71.9169V8.49644C5.93359 8.14082 6.22187 7.85254 6.5775 7.85254H52.022C52.3777 7.85254 52.666 8.14082 52.666 8.49644V71.9169C52.666 72.2725 52.3777 72.5608 52.022 72.5608H6.5775C6.22187 72.5608 5.93359 72.2725 5.93359 71.9169Z" fill="white"/>
<path d="M52.3137 7.88867H49.9102C50.0872 7.88867 50.2306 8.17674 50.2306 8.53209V71.9047C50.2306 72.2601 50.0872 72.5481 49.9102 72.5481H52.3137C52.4907 72.5481 52.6341 72.2601 52.6341 71.9047V8.53209C52.6341 8.17674 52.4907 7.88867 52.3137 7.88867Z" fill="#EDEBED"/>
<path d="M44.2535 56.4666H20.7938C20.0877 56.4666 19.5156 55.8943 19.5156 55.1884C19.5156 54.4824 20.0879 53.9102 20.7938 53.9102H44.2535C44.9596 53.9102 45.5317 54.4824 45.5317 55.1884C45.5317 55.8943 44.9594 56.4666 44.2535 56.4666Z" fill="#4F4F4F"/>
<path d="M44.2535 49.7283H20.7938C20.0877 49.7283 19.5156 49.156 19.5156 48.4501C19.5156 47.7441 20.0879 47.1719 20.7938 47.1719H44.2535C44.9596 47.1719 45.5317 47.7441 45.5317 48.4501C45.5317 49.156 44.9594 49.7283 44.2535 49.7283Z" fill="#4F4F4F"/>
<path d="M44.2535 42.4167H20.7938C20.0877 42.4167 19.5156 41.8445 19.5156 41.1385C19.5156 40.4326 20.0879 39.8604 20.7938 39.8604H44.2535C44.9596 39.8604 45.5317 40.4326 45.5317 41.1385C45.5317 41.8445 44.9594 42.4167 44.2535 42.4167Z" fill="#4F4F4F"/>
<path d="M44.2535 35.1042H20.7938C20.0877 35.1042 19.5156 34.532 19.5156 33.826C19.5156 33.1201 20.0879 32.5479 20.7938 32.5479H44.2535C44.9596 32.5479 45.5317 33.1201 45.5317 33.826C45.5317 34.532 44.9594 35.1042 44.2535 35.1042Z" fill="#4F4F4F"/>
<path d="M37.6931 11.3263H24.7198C21.1639 11.3263 18.2812 8.44359 18.2812 4.88766V1.66828C18.2812 0.779219 19.0019 0.0585938 19.8909 0.0585938H42.522C43.4111 0.0585938 44.1317 0.779219 44.1317 1.66828V4.88766C44.1317 8.44359 41.2491 11.3263 37.6931 11.3263Z" fill="#655E67"/>
<path d="M42.523 0.0585938H37.6941C38.583 0.0585938 39.3038 0.779219 39.3038 1.66828V4.88766C39.3038 8.44359 36.4212 11.3263 32.8652 11.3263H37.6941C41.2501 11.3263 44.1327 8.44359 44.1327 4.88766V1.66828C44.1327 0.779219 43.4121 0.0585938 42.523 0.0585938Z" fill="#544F56"/>
<path d="M10 35.2152V31.7051C10 31.3163 10.3153 31.001 10.7042 31.001H14.2143C14.6031 31.001 14.9184 31.3163 14.9184 31.7051V35.2152C14.9184 35.6041 14.6031 35.9194 14.2143 35.9194H10.7042C10.3152 35.9194 10 35.6041 10 35.2152Z" fill="#66B49D"/>
<path d="M10 42.5278V39.0176C10 38.6288 10.3153 38.3135 10.7042 38.3135H14.2143C14.6031 38.3135 14.9184 38.6288 14.9184 39.0176V42.5278C14.9184 42.9166 14.6031 43.2319 14.2143 43.2319H10.7042C10.3152 43.2319 10 42.9166 10 42.5278Z" fill="#66B49D"/>
<path d="M10 49.8412V46.3311C10 45.9422 10.3153 45.627 10.7042 45.627H14.2143C14.6031 45.627 14.9184 45.9422 14.9184 46.3311V49.8412C14.9184 50.2301 14.6031 50.5454 14.2143 50.5454H10.7042C10.3152 50.5454 10 50.2301 10 49.8412Z" fill="#66B49D"/>
<path d="M12.131 34.5142C12.1305 34.5142 12.13 34.5142 12.1295 34.5142C11.9284 34.5137 11.7377 34.4163 11.6192 34.2538L11.0873 33.5233C10.9392 33.3199 10.984 33.035 11.1874 32.8869C11.3908 32.7389 11.6758 32.7837 11.8238 32.987L12.1322 33.4106L13.0339 32.1855C13.1831 31.9829 13.4682 31.9396 13.6707 32.0887C13.8734 32.2378 13.9167 32.523 13.7676 32.7256L12.6408 34.2564C12.522 34.4179 12.3315 34.5142 12.131 34.5142Z" fill="#F6F9F9"/>
<path d="M12.131 41.9878C12.1304 41.9878 12.1298 41.9878 12.1293 41.9878C11.9282 41.9873 11.7375 41.8899 11.6191 41.7273L11.0873 40.9969C10.9392 40.7935 10.984 40.5086 11.1874 40.3605C11.3908 40.2125 11.6758 40.2573 11.8238 40.4606L12.1322 40.8842L13.0339 39.6591C13.1831 39.4565 13.4682 39.4132 13.6707 39.5623C13.8734 39.7114 13.9167 39.9966 13.7676 40.1992L12.6408 41.73C12.522 41.8916 12.3315 41.9878 12.131 41.9878Z" fill="#F6F9F9"/>
<path d="M12.1309 49.1401C12.1304 49.1401 12.1299 49.1401 12.1294 49.1401C11.9284 49.1396 11.7376 49.0423 11.6192 48.8798L11.0873 48.1492C10.9392 47.9458 10.9841 47.6609 11.1875 47.5128C11.391 47.3647 11.6758 47.4097 11.8238 47.613L12.1322 48.0365L13.034 46.8115C13.1831 46.6089 13.4682 46.5656 13.6708 46.7147C13.8734 46.8637 13.9168 47.1489 13.7676 47.3515L12.6408 48.8823C12.5219 49.0438 12.3314 49.1401 12.1309 49.1401Z" fill="#F6F9F9"/>
<path d="M10 57.2143V53.7042C10 53.3153 10.3153 53 10.7042 53H14.2143C14.6031 53 14.9184 53.3153 14.9184 53.7042V57.2143C14.9184 57.6031 14.6031 57.9184 14.2143 57.9184H10.7042C10.3152 57.9184 10 57.6032 10 57.2143Z" fill="#66B49D"/>
<path d="M12.1309 56.5142C12.1304 56.5142 12.1299 56.5142 12.1294 56.5141C11.9284 56.5136 11.7376 56.4163 11.6192 56.2538L11.0873 55.5232C10.9392 55.3198 10.9841 55.035 11.1875 54.8869C11.391 54.7388 11.6758 54.7837 11.8238 54.987L12.1322 55.4106L13.034 54.1855C13.1831 53.9829 13.4682 53.9396 13.6708 54.0887C13.8734 54.2378 13.9168 54.5229 13.7676 54.7256L12.6408 56.2563C12.5219 56.4178 12.3314 56.5142 12.1309 56.5142Z" fill="#F6F9F9"/>
<path d="M44.7379 27.5564H21.2782C20.5721 27.5564 20 26.9841 20 26.2782C20 25.5723 20.5723 25 21.2782 25H44.7379C45.444 25 46.0161 25.5723 46.0161 26.2782C46.0161 26.9841 45.4438 27.5564 44.7379 27.5564Z" fill="#4F4F4F"/>
<path d="M10 28.2143V24.7042C10 24.3153 10.3153 24 10.7042 24H14.2143C14.6031 24 14.9184 24.3153 14.9184 24.7042V28.2143C14.9184 28.6031 14.6031 28.9184 14.2143 28.9184H10.7042C10.3152 28.9184 10 28.6031 10 28.2143Z" fill="#66B49D"/>
<path d="M12.1623 27.7163C12.1617 27.7163 12.1613 27.7163 12.1607 27.7163C11.9596 27.7159 11.7689 27.6185 11.6505 27.4559L11.1186 26.7255C10.9705 26.5221 11.0153 26.2371 11.2187 26.089C11.4221 25.941 11.707 25.9858 11.855 26.1891L12.1634 26.6127L13.0652 25.3876C13.2143 25.185 13.4994 25.1417 13.702 25.2908C13.9046 25.4399 13.948 25.7251 13.7988 25.9277L12.672 27.4585C12.5533 27.62 12.3627 27.7163 12.1623 27.7163Z" fill="#F6F9F9"/>
<path d="M44.7379 19.5564H21.2782C20.5721 19.5564 20 18.9841 20 18.2782C20 17.5723 20.5723 17 21.2782 17H44.7379C45.444 17 46.0161 17.5723 46.0161 18.2782C46.0161 18.9841 45.4438 19.5564 44.7379 19.5564Z" fill="#4F4F4F"/>
<path d="M10 20.2143V16.7042C10 16.3153 10.3153 16 10.7042 16H14.2143C14.6031 16 14.9184 16.3153 14.9184 16.7042V20.2143C14.9184 20.6031 14.6031 20.9184 14.2143 20.9184H10.7042C10.3152 20.9184 10 20.6031 10 20.2143Z" fill="#66B49D"/>
<path d="M12.1623 19.7163C12.1617 19.7163 12.1613 19.7163 12.1607 19.7163C11.9596 19.7159 11.7689 19.6185 11.6505 19.4559L11.1186 18.7255C10.9705 18.5221 11.0153 18.2371 11.2187 18.089C11.4221 17.941 11.707 17.9858 11.855 18.1891L12.1634 18.6127L13.0652 17.3876C13.2143 17.185 13.4994 17.1417 13.702 17.2908C13.9046 17.4399 13.948 17.7251 13.7988 17.9277L12.672 19.4585C12.5533 19.62 12.3627 19.7163 12.1623 19.7163Z" fill="#F6F9F9"/>
<path d="M60.2666 40.3813L59.5391 39.4228L56.8169 37.699L55.7706 37.5342L41.8319 59.5599C41.4956 60.091 41.2489 60.6738 41.1016 61.2848C42.7975 61.3058 44.3368 62.2806 45.0809 63.8047C45.5703 63.4103 45.9916 62.9381 46.3279 62.407L60.2666 40.3813Z" fill="#FED07A"/>
<path d="M62.2338 33.5988L61.0576 32.8539C60.1407 32.2732 58.9266 32.5461 58.3462 33.4632L57.2676 35.1676L57.6117 35.8613L60.8848 37.934L61.7637 38.0147L62.8429 36.3092C63.4229 35.3926 63.1503 34.1792 62.2338 33.5988Z" fill="#ED5565"/>
<path d="M55.7734 37.5283L57.2718 35.1617L61.7687 38.0088L60.2703 40.3754L55.7734 37.5283Z" fill="#C9E2E7"/>
<path d="M45.0809 63.806L41.1121 67.0043C40.5522 67.4555 39.7388 66.9404 39.9073 66.2414L41.1016 61.2861C42.7975 61.307 44.3369 62.2819 45.0809 63.806Z" fill="#D1AD86"/>
<path d="M44.0391 62.4317L58.6504 39.3582L57.3984 38.5654L42.7871 61.6389C43.2455 61.832 43.6684 62.0999 44.0391 62.4317Z" fill="#FFC250"/>
<path d="M40.025 65.8779C39.621 67.727 39.9442 68.1672 41.5603 66.6704L40.025 65.8779Z" fill="#4F4F4F"/>
</svg>
