<svg width="80" height="80" viewBox="0 0 80 80" fill="none" xmlns="http://www.w3.org/2000/svg">
<path d="M79.9911 41.3982V66.2373C79.9911 67.2918 78.757 67.875 77.9415 67.1981L73.5423 63.5331C72.2738 62.4755 70.4398 62.5583 69.2744 63.7253L69.0025 63.9971C67.9309 65.0672 66.5077 65.6577 64.9939 65.6577C64.3034 65.6577 63.7441 65.0984 63.7441 64.408V41.3982C63.7441 40.7077 64.3034 40.1484 64.9939 40.1484H78.7413C79.4318 40.1484 79.9911 40.7077 79.9911 41.3982Z" fill="#EDEBFD"/>
<path d="M78.741 40.1484H72.4922C73.1827 40.1484 73.742 40.7077 73.742 41.3982V63.6997L77.9412 67.1981C78.7581 67.8761 79.9908 67.2899 79.9908 66.2373V41.3982C79.9908 40.7077 79.4315 40.1484 78.741 40.1484Z" fill="#D2D2FC"/>
<path d="M79.9911 36.2429V41.242C79.9911 41.9325 79.4318 42.4918 78.7413 42.4918H64.9939C64.3034 42.4918 63.7441 41.9325 63.7441 41.242V36.2429C63.7441 35.5524 64.3034 34.9932 64.9939 34.9932H78.7413C79.4318 34.9932 79.9911 35.5524 79.9911 36.2429Z" fill="#9DA0DF"/>
<path d="M78.741 34.9932H72.4922C73.1827 34.9932 73.742 35.5524 73.742 36.2429V41.242C73.742 41.9325 73.1827 42.4918 72.4922 42.4918H78.741C79.4315 42.4918 79.9908 41.9325 79.9908 41.242V36.2429C79.9908 35.5524 79.4315 34.9932 78.741 34.9932Z" fill="#8286C6"/>
<path d="M41.2481 41.3982V64.408C41.2481 65.0985 40.6889 65.6577 39.9984 65.6577C38.4846 65.6577 37.0614 65.0672 35.9897 63.9971C34.7542 62.7581 32.7474 62.7556 31.5093 63.9971C29.2983 66.2048 25.7187 66.2203 23.4921 63.9971C22.2565 62.7581 20.2497 62.7556 19.0117 63.9971C16.8007 66.2048 13.221 66.2203 10.9944 63.9971L10.7226 63.7253C9.55719 62.5583 7.7216 62.4755 6.45465 63.5316L2.05547 67.1981C1.2386 67.8761 0.00585938 67.2899 0.00585938 66.2373V41.3982C0.00585938 40.7077 0.565129 40.1484 1.25562 40.1484H39.9984C40.6889 40.1484 41.2481 40.7077 41.2481 41.3982Z" fill="#EDEBFD"/>
<path d="M41.2481 36.2429V41.242C41.2481 41.9325 40.6889 42.4918 39.9984 42.4918H1.25562C0.565129 42.4918 0.00585938 41.9325 0.00585938 41.242V36.2429C0.00585938 35.5524 0.565129 34.9932 1.25562 34.9932H39.9984C40.6889 34.9932 41.2481 35.5524 41.2481 36.2429Z" fill="#9DA0DF"/>
<path d="M61.2448 41.3982V48.7406C61.2448 49.4311 60.6855 49.9903 59.995 49.9903H44.9978C44.3073 49.9903 43.748 49.4311 43.748 48.7406V41.3982C43.748 40.7077 44.3073 40.1484 44.9978 40.1484H59.995C60.6855 40.1484 61.2448 40.7077 61.2448 41.3982Z" fill="#EDEBFD"/>
<path d="M61.2448 36.2429V41.242C61.2448 41.9325 60.6855 42.4918 59.995 42.4918H44.9978C44.3073 42.4918 43.748 41.9325 43.748 41.242V36.2429C43.748 35.5524 44.3073 34.9932 44.9978 34.9932H59.995C60.6855 34.9932 61.2448 35.5524 61.2448 36.2429Z" fill="#9DA0DF"/>
<path d="M12.5049 17.4962C15.2658 17.4962 17.504 15.258 17.504 12.4971C17.504 9.7362 15.2658 7.49805 12.5049 7.49805C9.74402 7.49805 7.50586 9.7362 7.50586 12.4971C7.50586 15.258 9.74402 17.4962 12.5049 17.4962Z" fill="#F4E1A1"/>
<path d="M12.5037 4.99906C11.8135 4.99906 11.2539 4.43948 11.2539 3.7493V1.24977C11.2539 0.559583 11.8135 0 12.5037 0C13.1939 0 13.7534 0.559583 13.7534 1.24977V3.7493C13.7534 4.43948 13.194 4.99906 12.5037 4.99906Z" fill="#F4E1A1"/>
<path d="M18.6887 7.56088C17.5851 7.56088 17.0154 6.21691 17.8049 5.42753L19.5723 3.66005C20.0603 3.17186 20.8516 3.17202 21.3398 3.65989C21.8278 4.14793 21.8279 4.93918 21.3398 5.42722L19.5724 7.1947C19.3284 7.43887 19.0086 7.56088 18.6887 7.56088Z" fill="#F4E1A1"/>
<path d="M20.4565 21.7005C20.1366 21.7005 19.8168 21.5785 19.5728 21.3343L17.8055 19.5668C17.3174 19.0788 17.3174 18.2875 17.8055 17.7995C18.2937 17.3116 19.0849 17.3116 19.573 17.7996L21.3403 19.5671C22.13 20.3568 21.5598 21.7005 20.4565 21.7005Z" fill="#F4E1A1"/>
<path d="M4.55002 21.7015C3.44647 21.7015 2.87674 20.3575 3.66628 19.5681L5.4336 17.8007C5.92163 17.3125 6.71289 17.3126 7.20108 17.8005C7.68912 18.2885 7.68927 19.0798 7.20108 19.5678L5.43376 21.3353C5.1899 21.5795 4.86996 21.7015 4.55002 21.7015Z" fill="#F4E1A1"/>
<path d="M6.31803 7.5618C5.99809 7.5618 5.6783 7.43979 5.43429 7.19562L3.66681 5.42814C3.17877 4.9401 3.17877 4.14884 3.66681 3.66081C4.155 3.17293 4.94625 3.17293 5.43429 3.66097L7.20161 5.42845C7.99162 6.21814 7.42126 7.5618 6.31803 7.5618Z" fill="#F4E1A1"/>
<path d="M3.75516 13.7476H1.25562C0.565442 13.7476 0.00585938 13.188 0.00585938 12.4978C0.00585938 11.8076 0.565442 11.248 1.25562 11.248H3.75516C4.44534 11.248 5.00492 11.8076 5.00492 12.4978C5.00492 13.188 4.44549 13.7476 3.75516 13.7476Z" fill="#F4E1A1"/>
<path d="M23.7512 13.7476H21.2517C20.5615 13.7476 20.002 13.188 20.002 12.4978C20.002 11.8076 20.5615 11.248 21.2517 11.248H23.7512C24.4414 11.248 25.001 11.8076 25.001 12.4978C25.001 13.188 24.4416 13.7476 23.7512 13.7476Z" fill="#F4E1A1"/>
<path d="M12.5037 24.9961C11.8135 24.9961 11.2539 24.4366 11.2539 23.7464V21.2468C11.2539 20.5567 11.8135 19.9971 12.5037 19.9971C13.1939 19.9971 13.7534 20.5567 13.7534 21.2468V23.7464C13.7534 24.4366 13.194 24.9961 12.5037 24.9961Z" fill="#F4E1A1"/>
<path d="M61.2448 53.74V61.9994C61.2448 62.8363 60.4373 63.4377 59.6357 63.196C58.5712 62.8805 57.3566 63.1436 56.505 63.9975C54.294 66.2052 50.7144 66.2206 48.4878 63.9975C47.6392 63.1467 46.4255 62.8792 45.3571 63.196C44.5559 63.4377 43.748 62.8366 43.748 61.9994V53.74C43.748 53.0495 44.3073 52.4902 44.9978 52.4902H59.995C60.6855 52.4902 61.2448 53.0495 61.2448 53.74Z" fill="#EDEBFD"/>
<path d="M69.9241 34.9935H64.9953V64.4083C63.8643 64.4083 62.7332 63.9755 61.8709 63.1132C61.3304 62.5727 60.6836 62.2009 59.9962 61.9994V53.74H44.9991V61.9994C44.3117 62.2009 43.6649 62.5727 43.1244 63.1132C42.2621 63.9755 41.131 64.4083 40 64.4083V33.8999C40 32.5189 41.1185 31.4004 42.4995 31.4004H45.6286C47.7767 31.4004 49.5623 32.9501 49.9278 34.9935H44.9991V48.7409H59.9962V33.8999C59.9962 32.5189 61.1148 31.4004 62.4958 31.4004H65.6249C67.7729 31.4004 69.5585 32.9501 69.9241 34.9935Z" fill="#696EAD"/>
<path d="M44.9978 34.9932H47.4973V42.4918H44.9978C44.3073 42.4918 43.748 41.9325 43.748 41.242V36.2429C43.748 35.5524 44.3073 34.9932 44.9978 34.9932Z" fill="#696EAD"/>
<path d="M67.4934 34.9932V42.4918H64.9939C64.3034 42.4918 63.7441 41.9325 63.7441 41.242V36.2429C63.7441 35.5524 64.3034 34.9932 64.9939 34.9932H67.4934Z" fill="#8286C6"/>
<path d="M47.4973 34.9932V42.4918H44.9978C44.3073 42.4918 43.748 41.9325 43.748 41.242V36.2429C43.748 35.5524 44.3073 34.9932 44.9978 34.9932H47.4973Z" fill="#8286C6"/>
<path d="M42.498 34.9932H44.9976V48.7406H42.498V34.9932Z" fill="#505795"/>
<path d="M47.4261 34.9935H49.9257C49.5601 32.9501 47.7745 31.4004 45.6265 31.4004H43.127C45.275 31.4004 47.0606 32.9501 47.4261 34.9935Z" fill="#505795"/>
<path d="M62.4941 63.6315C63.2446 64.1479 64.1188 64.408 64.9937 64.408V34.9932H62.4941V63.6315Z" fill="#505795"/>
<path d="M65.6226 31.4004H63.123C65.2711 31.4004 67.0567 32.9501 67.4222 34.9935H69.9218C69.5562 32.9501 67.7706 31.4004 65.6226 31.4004Z" fill="#505795"/>
<path d="M42.4995 61.9996C41.1057 62.4083 40.7536 63.1138 40 63.6321V64.4086C41.131 64.4086 42.2621 63.9758 43.1244 63.1135C43.6649 62.573 44.3117 62.2011 44.9991 61.9996V53.7402H42.4995V61.9996Z" fill="#505795"/>
<path d="M44.998 53.7402H47.4976V61.2388H44.998V53.7402Z" fill="#D2D2FC"/>
<path d="M64.9941 42.4922H67.4937V63.7382H64.9941V42.4922Z" fill="#D2D2FC"/>
<path d="M44.998 42.4922H47.4976V48.741H44.998V42.4922Z" fill="#D2D2FC"/>
<path d="M79.9909 66.2382V78.7359C79.9909 79.2077 79.73 79.6185 79.3441 79.8294C78.9115 80.0724 84.3466 79.9856 1.25563 79.9856C0.56513 79.9856 0.00585938 79.4264 0.00585938 78.7359V66.2382C0.00585938 65.8664 0.169891 65.5149 0.455775 65.2775L4.85495 61.6125C7.12171 59.7238 10.4039 59.8722 12.491 61.9578L12.7628 62.2296C13.9984 63.4686 16.0052 63.4711 17.2433 62.2296C19.4542 60.0219 23.0339 60.0064 25.2605 62.2296C26.496 63.4686 28.5029 63.4711 29.7409 62.2296C31.9519 60.0219 35.5315 60.0064 37.7582 62.2296C38.9937 63.4686 41.0005 63.4711 42.2386 62.2296C44.4257 60.0425 48.0109 59.9881 50.2558 62.2296C51.4914 63.4686 53.4982 63.4711 54.7362 62.2296C56.9791 59.99 60.5645 60.0406 62.7535 62.2296C63.989 63.4686 65.9958 63.4711 67.2339 62.2296L67.5057 61.9578C69.1929 60.2722 71.6612 59.8519 73.742 60.7518C74.7259 61.1753 74.744 61.2829 79.541 65.2775C79.8268 65.5149 79.9909 65.8664 79.9909 66.2382Z" fill="#C8EFFD"/>
<path d="M47.7558 62.2288C48.7117 63.1872 50.1046 63.3918 51.2458 62.901C50.8809 62.744 50.5445 62.5189 50.2554 62.2288C48.8248 60.8005 46.8294 60.2918 44.998 60.7078C46.0341 60.9404 46.986 61.46 47.7558 62.2288Z" fill="#A0E1FD"/>
<path d="M35.2589 62.2282C36.2148 63.1866 37.6076 63.3912 38.7488 62.9004C38.3839 62.7434 38.0476 62.5183 37.7584 62.2282C36.3387 60.8106 34.359 60.2899 32.5 60.7069C33.5365 60.9394 34.4887 61.4591 35.2589 62.2282Z" fill="#A0E1FD"/>
<path d="M60.2552 62.2288C61.2111 63.1872 62.604 63.3919 63.7452 62.901C63.3802 62.744 63.0439 62.5189 62.7547 62.2288C61.4068 60.881 59.438 60.2711 57.4941 60.7082C58.5625 60.9514 59.5072 61.4808 60.2552 62.2288Z" fill="#A0E1FD"/>
<path d="M10.2629 62.229C11.2189 63.1874 12.6117 63.392 13.7529 62.9012C13.1294 62.6329 12.8245 62.2911 12.4907 61.9573C11.0626 60.5304 9.0752 60.0108 7.23633 60.4296C8.58826 60.7374 9.40342 61.3694 10.2629 62.229Z" fill="#A0E1FD"/>
<path d="M22.7608 62.2282C23.7167 63.1866 25.1096 63.3912 26.2508 62.9004C25.8859 62.7434 25.5495 62.5183 25.2603 62.2282C23.8406 60.8106 21.861 60.2899 20.002 60.7069C21.0385 60.9394 21.9906 61.4591 22.7608 62.2282Z" fill="#A0E1FD"/>
<path d="M79.991 66.2384V78.7361C79.991 79.2079 79.7301 79.6187 79.3443 79.8296C78.9618 80.0443 79.1129 79.9858 73.7422 79.9858V60.752C74.7261 61.1755 74.7442 61.2831 79.5411 65.2777C79.827 65.5151 79.991 65.8666 79.991 66.2384Z" fill="#A0E1FD"/>
</svg>
