<svg width="80" height="80" viewBox="0 0 80 80" fill="none" xmlns="http://www.w3.org/2000/svg">
<path d="M0 10.3672V0H80V10.2927H73.6604V15.2052H6.33962V10.3672H0Z" fill="#86D9F7"/>
<path d="M73.6606 15.2051H6.33984V38.3584H73.6606V15.2051Z" fill="#C69C6D"/>
<path d="M73.6606 37.667H6.33984V49.0709L34.4154 67.7318V79.9996H46.038V67.7318L73.6606 49.0709V37.667Z" fill="#A67C52"/>
<path d="M0 10.3674V2.0001C0 2.0001 5.12933 1.93618 7.5 5.00021C10.0689 8.32046 10.8679 15.2054 10.8679 15.2054H6.33962V10.3674H0Z" fill="#6DB3CD"/>
<path d="M10.8681 15.2051H6.33984V37.6673H14.4908L10.8681 15.2051Z" fill="#B68C5C"/>
<path d="M14.4908 37.667H6.33984V49.0709L34.4153 67.7318V79.9996H46.038V67.7318L49.3587 65.4856C49.3587 65.4856 19.4317 58.4043 15.3964 43.0234C14.8581 40.9713 14.4908 37.667 14.4908 37.667Z" fill="#94673A"/>
<path d="M62.3346 7.00548C62.1041 6.86939 61.9001 6.72538 61.7029 6.58606C61.0946 6.15661 60.6143 5.81738 59.5494 5.81738C58.4914 5.81738 58.0111 6.15661 57.4028 6.58606C56.7281 7.0625 55.9633 7.60254 54.4933 7.60254C53.0233 7.60254 52.2585 7.0625 51.5838 6.58606C50.9756 6.15661 50.4952 5.81738 49.4373 5.81738C48.3793 5.81738 47.8989 6.15661 47.2907 6.58606C46.616 7.0625 45.8512 7.60254 44.3811 7.60254C42.9111 7.60254 42.1463 7.0625 41.4716 6.58606C40.8641 6.15706 40.3841 5.81816 39.3285 5.81738C38.2729 5.81816 37.7929 6.15706 37.1854 6.58606C36.5107 7.0625 35.7459 7.60254 34.2759 7.60254C32.8059 7.60254 32.0411 7.0625 31.3664 6.58606C30.7582 6.15661 30.2778 5.81738 29.2198 5.81738C28.1618 5.81738 27.6813 6.15661 27.0732 6.58606C26.3985 7.0625 25.6337 7.60254 24.1636 7.60254C22.6936 7.60254 21.9288 7.0625 21.2541 6.58606C20.646 6.15661 20.1655 5.81738 19.1006 5.81738C18.0426 5.81738 17.5622 6.15661 16.954 6.58606C16.5376 6.88008 16.0656 7.21341 15.4049 7.41443C15.0166 7.53249 14.6179 7.26709 14.5147 6.82116C14.4117 6.37535 14.6431 5.91795 15.0318 5.79967C15.4852 5.66168 15.8123 5.4307 16.1911 5.1633C16.8658 4.68685 17.6306 4.14682 19.1076 4.14682C20.5776 4.14682 21.3424 4.68685 22.0172 5.1633C22.6253 5.59274 23.1057 5.93198 24.1636 5.93198C25.2217 5.93198 25.7021 5.59274 26.3102 5.1633C26.985 4.68685 27.7498 4.14682 29.2198 4.14682C30.6898 4.14682 31.4546 4.68685 32.1293 5.1633C32.7375 5.59274 33.2179 5.93198 34.2758 5.93198C35.3338 5.93198 35.8141 5.59274 36.4224 5.1633C37.0956 4.68786 37.8584 4.14927 39.3218 4.14682H39.3285C39.3285 4.14682 39.333 4.14682 39.3352 4.14682C40.7985 4.14927 41.5615 4.68797 42.2346 5.1633C42.8427 5.59274 43.3231 5.93198 44.3811 5.93198C45.4392 5.93198 45.9195 5.59274 46.5277 5.1633C47.2025 4.68685 47.9673 4.14682 49.4373 4.14682C50.9073 4.14682 51.6721 4.68685 52.3468 5.1633C52.9551 5.59274 53.4354 5.93198 54.4934 5.93198C55.5514 5.93198 56.0318 5.59274 56.64 5.1633C57.3147 4.68685 58.0795 4.14682 59.5565 4.14682C61.0265 4.14682 61.7912 4.68685 62.466 5.1633C62.648 5.29182 62.8199 5.41321 63.0008 5.52002C63.3584 5.73107 63.499 6.23468 63.3151 6.64486C63.131 7.05515 62.6922 7.21664 62.3346 7.00548Z" fill="#F8FBFC"/>
<path d="M71.8476 3.17009C71.8351 3.32591 71.7535 3.45566 71.6475 3.45566H70.5413C70.4107 3.45566 70.2957 3.24628 70.3566 2.99443C70.3569 2.99307 70.3573 2.99167 70.3576 2.99018C70.4364 2.65551 70.7283 2.41895 71.0647 2.41895H71.1234C71.4641 2.41895 71.7607 2.66065 71.8337 3.00127C71.8349 3.00632 71.8359 3.01112 71.8369 3.01579C71.8485 3.06765 71.8516 3.12018 71.8476 3.17009Z" fill="#4B5055"/>
<path d="M11.1679 4.2072C11.1554 4.36302 11.0738 4.49277 10.9678 4.49277H9.86159C9.73103 4.49277 9.61605 4.28339 9.67689 4.03154C9.67723 4.03018 9.67756 4.02878 9.6779 4.02729C9.75674 3.69262 10.0486 3.45605 10.385 3.45605H10.4437C10.7844 3.45605 11.081 3.69776 11.154 4.03837C11.1552 4.04343 11.1562 4.04823 11.1572 4.0529C11.1688 4.10476 11.172 4.15729 11.1679 4.2072Z" fill="#4B5055"/>
<path d="M38.9413 9.04509C38.9289 9.20091 38.8472 9.33066 38.7412 9.33066H37.635C37.5045 9.33066 37.3895 9.12128 37.4503 8.86943C37.4507 8.86807 37.451 8.86667 37.4513 8.86518C37.5302 8.53051 37.8221 8.29395 38.1585 8.29395H38.2171C38.5579 8.29395 38.8544 8.53565 38.9275 8.87627C38.9286 8.88132 38.9297 8.88612 38.9307 8.89079C38.9423 8.94265 38.9454 8.99518 38.9413 9.04509Z" fill="#4B5055"/>
<path d="M59.4706 12.1554C59.4582 12.3113 59.3765 12.441 59.2705 12.441H58.1643C58.0338 12.441 57.9188 12.2316 57.9796 11.9798C57.98 11.9784 57.9803 11.977 57.9806 11.9755C58.0595 11.6409 58.3514 11.4043 58.6878 11.4043H58.7464C59.0872 11.4043 59.3837 11.646 59.4568 11.9866C59.4579 11.9917 59.459 11.9965 59.46 12.0011C59.4716 12.053 59.4747 12.1055 59.4706 12.1554Z" fill="#4B5055"/>
<path d="M20.4938 11.6843C20.4938 11.7594 20.4761 11.8315 20.4445 11.8939C20.3833 12.0151 20.2703 12.1001 20.135 12.1001H18.1693C17.9171 12.1001 17.7437 11.8055 17.8354 11.5327L17.8415 11.5145C17.9701 11.1318 18.2483 10.8526 18.5803 10.753C18.6677 10.7267 18.7588 10.7129 18.8519 10.7129H19.4527C19.9087 10.7129 20.316 11.0441 20.4719 11.5416C20.4868 11.5892 20.4938 11.6373 20.4938 11.6843Z" fill="#919196"/>
<path d="M44.947 3.04469C44.947 3.11974 44.9292 3.19187 44.8977 3.25428C44.8365 3.37549 44.7234 3.46041 44.5881 3.46041H42.6225C42.3702 3.46041 42.1968 3.16581 42.2885 2.89301L42.2946 2.87487C42.4232 2.49214 42.7014 2.21297 43.0335 2.11337C43.1208 2.08707 43.212 2.07324 43.305 2.07324H43.9058C44.3618 2.07324 44.7692 2.40441 44.925 2.9019C44.9399 2.94957 44.947 2.9977 44.947 3.04469Z" fill="#919196"/>
<path d="M5.40008 9.9568C5.40008 10.0318 5.38231 10.104 5.35079 10.1664C5.28958 10.2876 5.17656 10.3725 5.04126 10.3725H3.07559C2.82335 10.3725 2.64994 10.0779 2.74166 9.80512L2.74776 9.78698C2.87632 9.40425 3.15451 9.12508 3.48658 9.02548C3.57392 8.99918 3.6651 8.98535 3.75817 8.98535H4.35892C4.81497 8.98535 5.22228 9.31652 5.37815 9.81401C5.39304 9.86168 5.40008 9.90981 5.40008 9.9568Z" fill="#94673A"/>
<path d="M76.3434 4.42751C76.3434 4.50255 76.3257 4.57468 76.2941 4.63709C76.2329 4.7583 76.1199 4.84322 75.9846 4.84322H74.0189C73.7667 4.84322 73.5933 4.54862 73.685 4.27583L73.6911 4.25768C73.8197 3.87495 74.0979 3.59578 74.4299 3.49618C74.5173 3.46988 74.6085 3.45605 74.7015 3.45605H75.3023C75.7583 3.45605 76.1656 3.78722 76.3215 4.28472C76.3364 4.33239 76.3434 4.38051 76.3434 4.42751Z" fill="#919196"/>
<path d="M69.7028 8.57399C69.7028 8.64903 69.685 8.72117 69.6535 8.78358C69.5923 8.90479 69.4793 8.9897 69.344 8.9897H67.3783C67.1261 8.9897 66.9527 8.69511 67.0444 8.42231L67.0505 8.40416C67.1791 8.02144 67.4572 7.74226 67.7893 7.64267C67.8767 7.61636 67.9678 7.60254 68.0609 7.60254H68.6617C69.1177 7.60254 69.525 7.9337 69.6809 8.4312C69.6958 8.47887 69.7028 8.527 69.7028 8.57399Z" fill="#B68B5C"/>
</svg>
