<svg width="80" height="80" viewBox="0 0 80 80" fill="none" xmlns="http://www.w3.org/2000/svg">
<path d="M40 78.8281C61.4442 78.8281 78.8281 61.4442 78.8281 40C78.8281 18.5558 61.4442 1.17188 40 1.17188C18.5558 1.17188 1.17188 18.5558 1.17188 40C1.17188 61.4442 18.5558 78.8281 40 78.8281Z" fill="#FFD164"/>
<path d="M45.0102 73.8184C23.5659 73.8184 6.18203 56.4344 6.18203 34.9903C6.18203 25.5439 9.55828 16.888 15.1661 10.1562C6.61609 17.2788 1.17188 28.0027 1.17188 40.0005C1.17188 61.4445 18.5558 78.8286 40 78.8286C51.998 78.8286 62.722 73.3842 69.8444 64.8342C63.1127 70.4422 54.4566 73.8184 45.0102 73.8184Z" fill="#FFC350"/>
<path d="M40 43.7578C42.0754 43.7578 43.7578 42.0754 43.7578 40C43.7578 37.9246 42.0754 36.2422 40 36.2422C37.9246 36.2422 36.2422 37.9246 36.2422 40C36.2422 42.0754 37.9246 43.7578 40 43.7578Z" fill="#6F6571"/>
<path d="M34.5125 30.4945L24.403 12.9842C23.6727 11.7192 22.0105 11.3329 20.8085 12.1629C12.6641 17.7871 7.1047 26.8871 6.28689 37.3229C6.17361 38.7688 7.34267 39.9998 8.79298 39.9998H29.0174C30.1849 39.9998 31.1916 39.1907 31.4506 38.0523C31.8466 36.3123 32.7617 34.7704 34.0234 33.5949C34.8855 32.7918 35.1016 31.5148 34.5125 30.4945Z" fill="#7E0060"/>
<path d="M55.6008 67.0202L45.4909 49.5093C44.9006 48.487 43.6845 48.0376 42.5561 48.3843C41.7481 48.6327 40.8906 48.7674 40.0006 48.7674C39.1106 48.7674 38.2533 48.6327 37.4451 48.3843C36.3167 48.0374 35.1005 48.4868 34.5103 49.5093L24.4005 67.0202C23.6714 68.2829 24.1631 69.9124 25.4792 70.5401C29.8792 72.6385 34.8011 73.8179 40.0008 73.8179C45.2005 73.8179 50.1223 72.6385 54.5223 70.5401C55.838 69.9124 56.3297 68.2831 55.6008 67.0202Z" fill="#7E0060"/>
<path d="M45.4897 30.4945L55.5992 12.9842C56.3295 11.7192 57.9917 11.3329 59.1937 12.1629C67.3383 17.7871 72.8975 26.8871 73.7153 37.3229C73.8286 38.7688 72.6597 39.9998 71.2092 39.9998H50.9848C49.8173 39.9998 48.8106 39.1907 48.5516 38.0523C48.1556 36.3123 47.2405 34.7704 45.9787 33.5949C45.1167 32.7918 44.9006 31.5148 45.4897 30.4945Z" fill="#7E0060"/>
<path d="M46.8853 28.0771L45.4897 30.4945C44.9006 31.5148 45.1167 32.7918 45.9787 33.595C47.2405 34.7704 48.1556 36.3123 48.5516 38.0523C48.8106 39.1907 49.8173 39.9998 50.9848 39.9998H53.7794C53.7794 34.9009 51.0025 30.4598 46.8853 28.0771Z" fill="#3F1735"/>
<path d="M31.4505 38.0523C31.8464 36.3123 32.7616 34.7704 34.0233 33.595C34.8853 32.7918 35.1016 31.5148 34.5123 30.4945L33.1167 28.0771C28.9995 30.4596 26.2227 34.9009 26.2227 39.9998H29.0172C30.1845 39.9998 31.1914 39.1907 31.4505 38.0523Z" fill="#3F1735"/>
<path d="M40.0008 53.7776C42.5111 53.7776 44.8575 53.0954 46.8844 51.9224L45.4911 49.5093C44.9008 48.487 43.6847 48.0376 42.5563 48.3843C41.7483 48.6327 40.8908 48.7674 40.0008 48.7674C39.1108 48.7674 38.2534 48.6327 37.4453 48.3843C36.3169 48.0374 35.1006 48.4868 34.5105 49.5093L33.1172 51.9224C35.1441 53.0956 37.4905 53.7776 40.0008 53.7776Z" fill="#3F1735"/>
<path d="M68.2844 11.7156C60.7292 4.16078 50.6844 0 40 0C29.3156 0 19.2708 4.16078 11.7156 11.7156C4.16078 19.2708 0 29.3156 0 40C0 50.6844 4.16078 60.7292 11.7156 68.2844C19.2708 75.8392 29.3156 80 40 80C50.6844 80 60.7292 75.8392 68.2844 68.2844C75.8392 60.7292 80 50.6844 80 40C80 29.3156 75.8392 19.2708 68.2844 11.7156ZM66.627 66.627C59.5147 73.7394 50.0584 77.6562 40 77.6562C29.9416 77.6562 20.4853 73.7394 13.373 66.627C6.26062 59.5147 2.34375 50.0584 2.34375 40C2.34375 29.9416 6.26062 20.4853 13.373 13.373C20.4853 6.26062 29.9416 2.34375 40 2.34375C50.0584 2.34375 59.5147 6.26062 66.627 13.373C73.7394 20.4853 77.6562 29.9416 77.6562 40C77.6562 50.0584 73.7394 59.5147 66.627 66.627Z" fill="#FFD164"/>
</svg>
