<svg width="56" height="80" viewBox="0 0 56 80" fill="none" xmlns="http://www.w3.org/2000/svg">
<path d="M49.0168 5.16122H2.58008C2.58008 2.30964 4.88843 0 7.74129 0H32.0235L49.0168 5.16122Z" fill="#545C66"/>
<path d="M45.6643 63.241C48.9933 63.5004 51.6062 66.2874 51.6062 69.6745C51.6062 73.2357 48.721 76.1208 45.1495 76.1208C44.2243 76.1208 43.3456 75.9247 42.5534 75.5711C40.285 74.5789 38.7031 72.3105 38.7031 69.6745C38.7031 66.1106 41.587 63.2178 45.1495 63.2178C45.3263 63.2178 45.4992 63.2229 45.6643 63.241Z" fill="#969798"/>
<path d="M34.8235 69.677C34.8235 73.8963 37.3525 77.5349 40.9911 79.122V79.1349C39.9202 79.6897 38.6944 79.9994 37.4041 79.9994H14.2057C9.92191 79.9994 6.46389 76.5414 6.46389 72.2576L2.58008 14.1939H14.2057C14.2057 12.7617 15.3541 11.6133 16.7863 11.6133H49.031L45.973 59.3803C45.702 59.3545 45.4311 59.3429 45.1459 59.3429C39.4428 59.3416 34.8235 63.9738 34.8235 69.677V69.677Z" fill="#FFDD40"/>
<path d="M45.1568 11.6133L42.0742 59.8074C43.0445 59.5055 44.0768 59.3429 45.1464 59.3429C45.4316 59.3429 45.7026 59.3558 45.9735 59.3803L49.0315 11.6133H45.1568Z" fill="#BE9F0F"/>
<path d="M45.1516 70.9638C44.4381 70.9638 43.8613 70.387 43.8613 69.6735V63.2219C43.8613 62.5084 44.4381 61.9316 45.1516 61.9316C45.8652 61.9316 46.4419 62.5084 46.4419 63.2219V69.6735C46.4419 70.387 45.8652 70.9638 45.1516 70.9638Z" fill="#E6E9ED"/>
<path d="M39.5651 74.1905C39.1186 74.1905 38.6851 73.9595 38.4464 73.5453C38.0902 72.9273 38.3019 72.1389 38.9186 71.7828L44.5056 68.557C45.1211 68.2009 45.9108 68.4112 46.2682 69.0293C46.6243 69.6473 46.4127 70.4357 45.7959 70.7918L40.2089 74.0176C40.0063 74.135 39.7844 74.1905 39.5651 74.1905Z" fill="#E6E9ED"/>
<path d="M50.7363 74.1901C50.5169 74.1901 50.295 74.1346 50.0924 74.0172L44.5054 70.7914C43.8874 70.4353 43.6757 69.6456 44.0332 69.0288C44.3893 68.4108 45.1802 68.1992 45.7957 68.5566L51.3827 71.7824C52.0008 72.1385 52.2124 72.9281 51.855 73.5449C51.6163 73.9591 51.1827 74.1901 50.7363 74.1901Z" fill="#E6E9ED"/>
<path d="M45.9737 59.3802C45.7028 59.3544 45.4318 59.3428 45.1467 59.3428C39.4435 59.3428 34.8242 63.975 34.8242 69.6781C34.8242 73.8974 37.3532 77.5361 40.9919 79.1231C42.2564 79.6896 43.6628 80.0005 45.1467 80.0005C50.864 80.0005 55.4833 75.3813 55.4833 69.6781C55.4833 64.2575 51.3027 59.7931 45.9737 59.3802V59.3802ZM45.1492 76.1219C44.2241 76.1219 43.3454 75.9258 42.5531 75.5722C40.2848 74.58 38.7029 72.3116 38.7029 69.6755C38.7029 66.1117 41.5867 63.2188 45.1492 63.2188C45.326 63.2188 45.4989 63.224 45.6628 63.2421C48.9918 63.5014 51.6046 66.2885 51.6046 69.6755C51.6059 73.2368 48.7208 76.1219 45.1492 76.1219V76.1219Z" fill="#656D78"/>
<path d="M1.2903 15.4839C2.00292 15.4839 2.58061 14.9062 2.58061 14.1936C2.58061 13.481 2.00292 12.9033 1.2903 12.9033C0.577689 12.9033 0 13.481 0 14.1936C0 14.9062 0.577689 15.4839 1.2903 15.4839Z" fill="#656D78"/>
<path d="M12.9036 15.4839C13.6162 15.4839 14.1939 14.9062 14.1939 14.1936C14.1939 13.481 13.6162 12.9033 12.9036 12.9033C12.191 12.9033 11.6133 13.481 11.6133 14.1936C11.6133 14.9062 12.191 15.4839 12.9036 15.4839Z" fill="#656D78"/>
<path d="M1.2903 7.74272C2.00292 7.74272 2.58061 7.16503 2.58061 6.45241C2.58061 5.7398 2.00292 5.16211 1.2903 5.16211C0.577689 5.16211 0 5.7398 0 6.45241C0 7.16503 0.577689 7.74272 1.2903 7.74272Z" fill="#656D78"/>
<path d="M50.3231 5.16211H49.0174H2.58061H1.2903L0 6.45241V10.3233V14.1942H1.2903H2.58061H14.2062C14.2062 12.762 15.3546 11.6136 16.7869 11.6136H49.0316H50.3219C51.0354 11.6136 51.6122 11.0369 51.6122 10.3233V6.45241C51.6122 5.74017 51.0367 5.1634 50.3231 5.16211Z" fill="#656D78"/>
<path d="M50.3233 5.16211H49.0176H46.4486C47.1621 5.1634 47.7376 5.74017 47.7376 6.45241V10.3233C47.7376 11.0369 47.1608 11.6136 46.4473 11.6136H49.0317H50.322C51.0356 11.6136 51.6124 11.0369 51.6124 10.3233V6.45241C51.6124 5.74017 51.0369 5.1634 50.3233 5.16211Z" fill="#545C66"/>
<path d="M1.29102 13.2461H12.9902V15.4835H1.29102V13.2461Z" fill="#656D78"/>
</svg>
