<svg width="120" height="46" viewBox="0 0 120 46" fill="none" xmlns="http://www.w3.org/2000/svg">
<path d="M18.1437 38.0381H16.2715V39.0366L18.0189 41.2L18.1437 38.0381Z" fill="#264D4A"/>
<path d="M16.2713 38.0781H15.7305V38.9934L17.7691 41.7393L17.9771 41.1152L16.2713 38.9934V38.0781Z" fill="#426261"/>
<path d="M17.1238 40.4933C16.9241 39.2951 17.4566 38.3299 17.7479 37.9971H18.3719L23.7389 38.4963C23.9608 39.162 24.3047 40.7846 23.9053 41.9495C23.5059 43.1144 22.1579 43.7107 21.5339 43.8633C20.7018 43.9326 18.8878 43.8882 18.2887 43.156C17.5398 42.2407 17.3734 41.9911 17.1238 40.4933Z" fill="#806065"/>
<path d="M17.1668 41.0328C16.834 39.5018 17.3749 38.3147 17.7077 37.9541H18.5815L18.8727 39.4519C18.8172 39.854 18.7978 40.9579 19.1639 42.1561C19.53 43.3543 20.8558 43.7926 21.5769 43.8619C20.7448 43.9035 19.8295 43.9009 19.0391 43.6539C18.3734 43.4459 17.4997 42.5639 17.1668 41.0328Z" fill="#473245"/>
<path d="M24.3004 38.0381H18.3926V39.2446L20.764 42.3233L22.6778 42.2401L24.3004 38.6622V38.0381Z" fill="#426261"/>
<path d="M18.3301 39.2452V37.9971H18.8709V39.2452L21.2008 42.2407H20.6183L18.3301 39.2452Z" fill="#264D4A"/>
<path d="M18.832 38.5379V37.9971H24.2406V38.5379H18.832Z" fill="#23363A"/>
<ellipse cx="21.7001" cy="40.4505" rx="0.748878" ry="0.915295" fill="#222C47"/>
<path d="M21.9918 40.6163C22.2248 40.2169 21.7838 39.812 21.5342 39.6594C22.1167 39.5762 22.5743 40.2419 22.3247 40.7828C22.125 41.2154 21.5758 41.1849 21.3262 41.1156C21.451 41.1156 21.7589 41.0157 21.9918 40.6163Z" fill="#181F3C"/>
<path d="M80.3038 38.0381H78.4316V39.0366L80.179 41.2L80.3038 38.0381Z" fill="#264D4A"/>
<path d="M78.4315 38.0781H77.8906V38.9934L79.9292 41.7393L80.1373 41.1152L78.4315 38.9934V38.0781Z" fill="#426261"/>
<path d="M79.284 40.4933C79.0843 39.2951 79.6168 38.3299 79.908 37.9971H80.5321L85.899 38.4963C86.1209 39.162 86.4649 40.7846 86.0655 41.9495C85.6661 43.1144 84.3181 43.7107 83.694 43.8633C82.8619 43.9326 81.048 43.8882 80.4489 43.156C79.7 42.2407 79.5336 41.9911 79.284 40.4933Z" fill="#806065"/>
<path d="M79.327 41.0328C78.9941 39.5018 79.535 38.3147 79.8679 37.9541H80.7416L81.0328 39.4519C80.9774 39.854 80.958 40.9579 81.3241 42.1561C81.6902 43.3543 83.0159 43.7926 83.737 43.8619C82.905 43.9035 81.9897 43.9009 81.1993 43.6539C80.5335 43.4459 79.6598 42.5639 79.327 41.0328Z" fill="#473245"/>
<path d="M86.4605 38.0381H80.5527V39.2446L82.9242 42.3233L84.838 42.2401L86.4605 38.6622V38.0381Z" fill="#426261"/>
<path d="M80.4902 39.2452V37.9971H81.0311V39.2452L83.3609 42.2407H82.7785L80.4902 39.2452Z" fill="#264D4A"/>
<path d="M80.9922 38.5379V37.9971H86.4007V38.5379H80.9922Z" fill="#23363A"/>
<ellipse cx="83.8602" cy="40.4505" rx="0.748878" ry="0.915295" fill="#222C47"/>
<path d="M84.152 40.6163C84.385 40.2169 83.944 39.812 83.6943 39.6594C84.2768 39.5762 84.7345 40.2419 84.4848 40.7828C84.2851 41.2154 83.736 41.1849 83.4863 41.1156C83.6111 41.1156 83.919 41.0157 84.152 40.6163Z" fill="#181F3C"/>
<path d="M111.651 38.5205H8.75781C9.36057 41.0822 11.9914 41.2518 13.2314 41.0163H107.742C110.794 41.8074 111.619 39.6821 111.651 38.5205Z" fill="#1D282E"/>
<path d="M102.752 38.4258H100.633V39.556L102.611 42.0047L102.752 38.4258Z" fill="#264D4A"/>
<path d="M100.634 38.4736H100.021V39.5096L102.329 42.6176L102.564 41.9112L100.634 39.5096V38.4736Z" fill="#426261"/>
<path d="M101.6 41.2043C101.374 39.8481 101.977 38.7556 102.307 38.3789H103.013L109.088 38.944C109.339 39.6974 109.728 41.534 109.276 42.8525C108.824 44.171 107.298 44.846 106.592 45.0187C105.65 45.0972 103.597 45.0469 102.919 44.2181C102.071 43.1821 101.883 42.8996 101.6 41.2043Z" fill="#806065"/>
<path d="M101.647 41.8167C101.271 40.0838 101.883 38.7401 102.26 38.332H103.249L103.578 40.0273C103.515 40.4825 103.493 41.732 103.908 43.0882C104.322 44.4444 105.823 44.9404 106.639 45.0189C105.697 45.066 104.661 45.063 103.767 44.7834C103.013 44.548 102.024 43.5497 101.647 41.8167Z" fill="#473245"/>
<path d="M109.722 38.4258H103.035V39.7914L105.719 43.2761L107.885 43.1819L109.722 39.1321V38.4258Z" fill="#426261"/>
<path d="M102.965 39.7916V38.3789H103.577V39.7916L106.214 43.1821H105.555L102.965 39.7916Z" fill="#264D4A"/>
<path d="M103.529 38.9911V38.3789H109.651V38.9911H103.529Z" fill="#23363A"/>
<ellipse cx="106.777" cy="41.1571" rx="0.847631" ry="1.03599" fill="#222C47"/>
<path d="M107.109 41.346C107.373 40.8939 106.873 40.4356 106.591 40.2629C107.25 40.1687 107.768 40.9222 107.486 41.5344C107.26 42.0241 106.638 41.9896 106.355 41.9111C106.497 41.9111 106.845 41.7981 107.109 41.346Z" fill="#181F3C"/>
<path d="M40.7773 38.4258H38.6582V39.556L40.636 42.0047L40.7773 38.4258Z" fill="#264D4A"/>
<path d="M38.6591 38.4736H38.0469V39.5096L40.3543 42.6176L40.5898 41.9112L38.6591 39.5096V38.4736Z" fill="#426261"/>
<path d="M39.6257 41.2043C39.3996 39.8481 40.0024 38.7556 40.332 38.3789H41.0384L47.1131 38.944C47.3642 39.6974 47.7535 41.534 47.3014 42.8525C46.8493 44.171 45.3236 44.846 44.6173 45.0187C43.6754 45.0972 41.6223 45.0469 40.9442 44.2181C40.0966 43.1821 39.9082 42.8996 39.6257 41.2043Z" fill="#806065"/>
<path d="M39.6728 41.8167C39.296 40.0838 39.9082 38.7401 40.285 38.332H41.2739L41.6036 40.0273C41.5408 40.4825 41.5188 41.732 41.9332 43.0882C42.3476 44.4444 43.8481 44.9404 44.6644 45.0189C43.7226 45.066 42.6866 45.063 41.7919 44.7834C41.0384 44.548 40.0495 43.5497 39.6728 41.8167Z" fill="#473245"/>
<path d="M47.7474 38.4258H41.0605V39.7914L43.7447 43.2761L45.9109 43.1819L47.7474 39.1321V38.4258Z" fill="#426261"/>
<path d="M40.9902 39.7916V38.3789H41.6024V39.7916L44.2395 43.1821H43.5802L40.9902 39.7916Z" fill="#264D4A"/>
<path d="M41.5547 38.9911V38.3789H47.6765V38.9911H41.5547Z" fill="#23363A"/>
<ellipse cx="44.8027" cy="41.1571" rx="0.847631" ry="1.03599" fill="#222C47"/>
<path d="M45.1343 41.346C45.398 40.8939 44.8989 40.4356 44.6163 40.2629C45.2756 40.1687 45.7936 40.9222 45.511 41.5344C45.285 42.0241 44.6634 41.9896 44.3809 41.9111C44.5221 41.9111 44.8706 41.7981 45.1343 41.346Z" fill="#181F3C"/>
<path d="M3.20312 22.5568V2.26074H117.068V36.0247H6.68783L3.20312 22.5568Z" fill="#3A9262"/>
<path d="M18.4607 24.957L17.2363 35.9291H26.9841L25.2888 24.957H18.4607Z" fill="#2F5548"/>
<path d="M117.961 36.0244H3.57812C3.57812 38.2471 5.58732 38.6144 6.59192 38.5202H117.066C118.046 37.6537 118.071 36.4953 117.961 36.0244Z" fill="#3C7157"/>
<path d="M14.7402 35.9305V2.26074H16.6239V35.9305H14.7402Z" fill="#222C47"/>
<path d="M30.1367 36.118V2.44824H32.0203V36.118H30.1367Z" fill="#222C47"/>
<path d="M3.29688 3.95557V2.35449H117.068V3.95557H3.29688Z" fill="#222C47"/>
<path d="M12.4297 36.1186V1.45996H14.9255V36.1186H12.4297Z" fill="#4F9175"/>
<path d="M27.6895 36.1655V1.50684H30.1853V36.1655H27.6895Z" fill="#519B7A"/>
<path d="M26.9826 35.9291L18.4121 24.957H25.2873L26.9826 35.9291Z" fill="#26323E"/>
<path d="M118.701 0H0.503618C0.164566 2.14733 2.52851 2.84113 3.75287 2.91962C39.4004 2.74695 114.289 2.91962 114.698 2.91962C117.927 2.91962 118.701 1.14587 118.701 0Z" fill="#3A9262"/>
<path d="M44.2181 0H0C0 2.41104 2.10338 2.95101 3.15507 2.91962C14.5707 2.81236 40.0471 2.82476 41.3854 2.82541L41.4397 2.82544C43.8277 2.82544 44.2024 1.08308 44.2181 0Z" fill="#4BA67A"/>
<path d="M118.434 5.17969C117.869 5.17969 117.853 5.74477 117.916 6.02732V11.066C117.916 11.2858 118.019 11.7253 118.434 11.7253C118.848 11.7253 118.983 11.2858 118.999 11.066V6.02732C119.046 5.74477 118.999 5.17969 118.434 5.17969Z" fill="#26323E"/>
<path d="M114.525 7.11086V5.93359H119.941V7.11086H114.525Z" fill="#27794D"/>
<path d="M114.525 10.689V9.51172H119.941V10.689H114.525Z" fill="#27794D"/>
<path d="M112.453 9.51172H114.478V10.689H112.453V9.51172Z" fill="#26323E"/>
<path d="M112.453 5.93359H114.478V7.11086H112.453V5.93359Z" fill="#26323E"/>
<path d="M118.434 23.8262C117.869 23.8262 117.853 24.3913 117.916 24.6738V29.7125C117.916 29.9323 118.019 30.3718 118.434 30.3718C118.848 30.3718 118.983 29.9323 118.999 29.7125V24.6738C119.046 24.3913 118.999 23.8262 118.434 23.8262Z" fill="#26323E"/>
<path d="M114.525 25.7573V24.5801H119.941V25.7573H114.525Z" fill="#27794D"/>
<path d="M114.525 29.3355V28.1582H119.941V29.3355H114.525Z" fill="#27794D"/>
<path d="M112.453 28.1582H114.478V29.3355H112.453V28.1582Z" fill="#26323E"/>
<path d="M112.453 24.5801H114.478V25.7573H112.453V24.5801Z" fill="#26323E"/>
<path d="M111.37 35.7422H106.002V38.5205H111.37V35.7422Z" fill="#4E9579"/>
<path d="M3.57812 35.9775H38.0013C38.152 37.7481 36.2433 38.4106 35.2701 38.5204C26.3386 38.5361 7.9858 38.5581 6.02684 38.5204C4.06787 38.4828 3.57812 36.8095 3.57812 35.9775Z" fill="#5CB08C"/>
<path d="M109.674 21.5674H41.0155L38.0488 36.0242H106.048L109.674 21.5674Z" fill="#1D5238"/>
<path d="M40.9688 21.7563V3.95605H109.674V21.5679L40.9688 21.7563Z" fill="#27794D"/>
<path d="M111.37 36.0718H106.049L109.675 21.5208V3.95605H111.37V36.0718Z" fill="#26323E"/>
</svg>
