<svg width="57" height="80" viewBox="0 0 57 80" fill="none" xmlns="http://www.w3.org/2000/svg">
<path d="M56.4465 27.0204C56.4465 26.011 55.8758 25.1369 55.0398 24.6988V3.6272C55.8469 3.43215 56.4465 2.7071 56.4465 1.8402C56.4465 0.973295 55.8469 0.248906 55.0398 0.0531963V0H1.8402C0.824214 0 0 0.823557 0 1.8402C0 2.85684 0.824214 3.6804 1.8402 3.6804H1.84217V24.5176C0.774958 24.8492 0 25.8442 0 27.0204C0 28.1967 0.774958 29.1916 1.84217 29.5226V50.4774C0.774958 50.8084 0 51.8033 0 52.9796C0 54.1558 0.774958 55.1508 1.84217 55.4824V76.3196H1.8402C0.824214 76.3196 0 77.1432 0 78.1598C0 79.1764 0.824214 80 1.8402 80H55.0398V79.9468C55.8469 79.7511 56.4465 79.026 56.4465 78.1598C56.4465 77.2929 55.8469 76.5679 55.0398 76.3728V55.3012C55.8758 54.8631 56.4465 53.989 56.4465 52.9796C56.4465 51.9708 55.8758 51.0967 55.0398 50.6586V29.3414C55.8758 28.9033 56.4465 28.0292 56.4465 27.0204Z" fill="#BDBFC1"/>
<path d="M56.4454 27.0204C56.4454 26.011 55.8747 25.1369 55.0387 24.6988V3.6272C55.8458 3.43215 56.4454 2.7071 56.4454 1.8402C56.4454 0.973295 55.8458 0.248906 55.0387 0.0531963V0H49.528C49.5004 1.2222 50.4165 80 50.4165 80H55.0387V79.9468C55.8458 79.7517 56.4454 79.0267 56.4454 78.1598C56.4454 77.2929 55.8458 76.5685 55.0387 76.3728V55.3012C55.8747 54.8631 56.4454 53.989 56.4454 52.9796C56.4454 51.9708 55.8747 51.0967 55.0387 50.6586V29.3414C55.8747 28.9033 56.4454 28.0292 56.4454 27.0204Z" fill="#959595"/>
<path d="M47.4533 27.9851H9.01013C8.28312 27.9851 7.69336 27.3953 7.69336 26.6683C7.69336 25.9413 8.28246 25.3516 9.01013 25.3516H47.4533C48.1804 25.3516 48.7701 25.9413 48.7701 26.6683C48.7701 27.3953 48.1804 27.9851 47.4533 27.9851Z" fill="#959595"/>
<path d="M47.4533 54.6456H9.01013C8.28312 54.6456 7.69336 54.0565 7.69336 53.3295C7.69336 52.6018 8.28246 52.0127 9.01013 52.0127H47.4533C48.1804 52.0127 48.7701 52.6018 48.7701 53.3295C48.7701 54.0565 48.1804 54.6456 47.4533 54.6456Z" fill="#959595"/>
<rect x="28.4785" y="19.667" width="28.7234" height="28.7234" transform="rotate(45.2531 28.4785 19.667)" fill="#EB3C46"/>
<rect x="28.207" y="23.7109" width="23.1629" height="23.1629" transform="rotate(45.2531 28.207 23.7109)" fill="#342820"/>
<path d="M23.903 47.2169C23.0728 46.2735 22.2426 45.2923 21.7143 44.1225C21.186 42.8772 21.035 41.4432 21.2992 40.0847C21.5634 38.7261 22.1671 37.4431 23.0351 36.3487C22.9596 37.2922 23.2993 38.2733 23.9408 38.9903C23.5634 37.1789 24.1672 35.2166 25.3748 33.7826C26.5823 32.3487 28.2428 31.4052 29.9786 30.7637C29.1107 31.6694 28.9975 33.1033 29.3371 34.3109C29.6768 35.5185 30.3938 36.5751 31.0353 37.6695C31.6768 38.7639 32.2806 39.896 32.3183 41.1413C32.658 40.4998 33.0354 39.8582 33.2618 39.1412C33.4882 38.4242 33.6014 37.6695 33.4127 36.9525C34.092 37.7827 34.4694 38.6129 34.658 39.6695C34.8467 40.7262 34.809 41.8205 34.6958 42.8772C34.5448 44.047 34.243 45.2546 33.6014 46.2357C32.8467 47.4056 31.6391 48.2358 30.3183 48.6886C27.9786 49.1037 25.6767 48.7641 23.903 47.2169Z" fill="#F3705A"/>
<path d="M26.7901 48.6231C29.8845 49.8307 32.9412 46.1702 31.243 43.34C31.243 43.3022 31.2053 43.3022 31.2053 43.2645C31.3562 44.8117 30.9789 45.9438 30.2619 46.5854C30.6392 45.6797 30.3751 44.6231 29.9222 43.7174C29.4694 42.8494 28.8279 42.057 28.3373 41.2267C27.8467 40.3588 27.4694 39.3776 27.6958 38.3965C26.7901 39.0757 26.1486 40.0946 25.8844 41.189C25.6202 42.2833 25.7712 43.4909 26.2618 44.5098C25.6957 44.0947 25.2806 43.4155 25.2429 42.6985C24.6391 43.4155 24.2617 44.3589 24.2995 45.3023C24.2995 46.774 25.4693 48.0948 26.7901 48.6231Z" fill="#FFD15C"/>
</svg>
